<svg id="color" viewBox="0 0 320 320" xmlns="http://www.w3.org/2000/svg"><path id="_226769120" d="m245.7582 69.20997s-30.4375 49.40143-116.1172 64.38483c-85.6806 14.9824-95.0469 6.0869-100.1992 15.917-5.1475 9.8359 28.5684 36.0537 68.3643 46.8242 39.7968 10.7705 98.705 4.1093 147.0175-34.1797 48.3057-38.2891 37.9219-88.495127.9346-92.94633z" fill="#e7bb24" data-name=" 226769120"/><path id="_226419296" d="m243.4193 60.7911s-3.2783-25.754.9346-31.1387c4.2129-5.3858 27.1572-6.7901 32.7744-3.2793 5.6172 3.5107 4.2129 12.6455 3.9815 22.2431-.2325 9.5977-2.3448 10.5391-.7022 16.61917 1.6358 6.0879 31.8408 76.32033-17.3213 154.50983-49.1631 78.1943-129.2265 81.4736-164.3457 72.1074-35.1133-9.3662-38.624-22.0049-25.7539-27.8535 12.877-5.8555 81.4737-46.1231 124.0781-101.8428 42.6123-55.7139 46.3545-101.3652 46.3545-101.3652z" fill="#f7d749" data-name=" 226419296"/><g fill="#242947"><path d="m134.5053 267.712c-.7569 0-1.4815-.4317-1.8184-1.1651-.4609-1.0029-.0215-2.1904.9824-2.6523 60.5655-27.8379 90.6446-67.045 105.212-95.0342 15.7441-30.2481 17.2343-54.1162 17.247-54.3545.0615-1.1025 1.0059-1.9297 2.1084-1.8857 1.1026.0615 1.9473 1.0048 1.8858 2.1084-.0557 1.0048-1.5547 24.9736-17.6924 55.9794-14.8574 28.543-45.4961 68.5108-107.0908 96.8213-.2705.1241-.5547.1827-.834.1827z"/><path d="m79.2074 286.9336c-.4111 0-.8261-.1259-1.1836-.3886-.8896-.6553-1.08-1.9073-.4258-2.7969 8.6329-11.7334-.0498-20.8154-.4228-21.1963-.7725-.7861-.7647-2.0518.0186-2.8262.7832-.7734 2.0429-.7724 2.8203.0088.1162.1162 11.5039 11.8438.8066 26.3848-.3926.5322-.999.8144-1.6133.8144z"/><path d="m38.1361 167.6416c-.457 0-.916-.1552-1.291-.4736-.8437-.7139-.9482-1.9756-.2344-2.8184 8.8965-10.5087 6.9434-20.0898 6.9229-20.1855-.2344-1.0791.4502-2.1445 1.5293-2.3789 1.084-.2334 2.1455.4502 2.3789 1.5293.1025.4687 2.3789 11.6221-7.7783 23.6191-.3955.4678-.96.708-1.5274.708z"/><path d="m88.517 164.6846c-1.0899 0-1.9815-.875-1.999-1.9687-.0166-1.1045.8642-2.0137 1.9687-2.0313 56.0938-.876 93.0283-21.6211 93.3946-21.831.9589-.5469 2.1796-.2159 2.7285.7431.5488.959.2168 2.1797-.7412 2.7285-.375.2149-38.1358 21.4659-95.3194 22.3594z"/><path d="m259.8266 64.74907c-11.2911 0-16.7715-1.95997-17.1016-2.08297-1.0361-.3829-1.5645-1.5342-1.1807-2.5694.3828-1.0351 1.5303-1.5644 2.5645-1.1826.1787.0625 11.4863 3.9814 35.3613.1211 1.0987-.1816 2.1172.5654 2.294 1.6553.1757 1.0908-.5655 2.1172-1.6553 2.2939-8.1387 1.31537-14.877 1.76467-20.2822 1.76467z"/><path d="m99.0131 250.919c-.6582 0-1.3027-.3242-1.6846-.919-.5967-.9287-.3281-2.166.6016-2.7636 23.4062-15.043 67.2031-46.2578 97.541-86.295 21.749-28.6953 33.0879-54.5732 38.7705-71.2285.3555-1.0459 1.4912-1.6064 2.5381-1.247 1.0459.3564 1.6045 1.4931 1.2471 2.538-5.7774 16.9346-17.2969 43.2334-39.3682 72.3536-30.7109 40.5293-74.9365 72.0576-98.5664 87.2441-.334.2148-.709.3174-1.0791.3174z"/></g></svg>