<svg id="Layer_1" viewBox="0 0 320 320" xmlns="http://www.w3.org/2000/svg" data-name="Layer 1"><path id="_228278264" d="m211.8908 212.8044035s37.6103 14.7381996 56.247 23.7206994c18.6358 8.9764998 23.8936 11.1805997 19.4854 18.1249971-4.4014 6.9453-15.25 18.1308-23.21 21.3515-7.9609 3.2197-10.165 7.6211-39.8144-12.707-29.6475-20.3358973-39.8155-37.7831969-39.8155-37.7831969l27.1075-12.7069997z" fill="#ab4d13" data-name=" 228278264"/><path id="_228020080" d="m282.796 243.862c6.461 3.7236026 7.7217 6.2334 4.834 10.7881-4.4082 6.9453-15.25 18.1308-23.2109 21.3515-4.0235 1.627-6.5791 3.5518-11.9434 2.4434-1.2676-6.7588-.9629-16.0332 5.8428-25.3145 6.5986-8.9960973 16.3984-10.2382973 24.4775-9.2685z" fill="#f9d1c8" data-name=" 228020080"/><path id="_228371080" d="m108.1002 208.7145036s-37.6103 14.7382996-56.2466 23.7206994c-18.6357 8.9765998-23.8886 11.1806997-19.4838 18.124997 4.4047 6.9453 15.2485 18.1319 23.2104 21.3516 7.9634 3.2207 10.166 7.622 39.8145-12.7071 29.6484-20.3358972 39.813-37.7831968 39.813-37.7831968l-27.1075-12.7069997z" fill="#ab4d13" data-name=" 228371080"/><path id="_204753880" d="m37.2033 239.7721028c-6.4585 3.7245999-7.7217 6.2333998-4.8335 10.7880972 4.4047 6.9453 15.2485 18.1319 23.2104 21.3516 4.0234 1.6269 6.5776 3.5527 11.9419 2.4433 1.2661-6.7588.9624-16.0332-5.8423-25.3143975-6.5957-8.9960998-16.397-10.2382997-24.4765-9.2685998z" fill="#f9d1c8" data-name=" 204753880"/><path id="_228371320" d="m146.2086 224.9733031s-16.7866 47.0448969-20.3022 66.5634969c-3.5122 19.5195 13.4707 20.8867 34.5532 20.8867 21.0806 0 26.5483-.9756 23.813-29.8691-2.7324-28.8868-6.0488-57.5810969-6.0488-57.5810969z" fill="#ab4d13" data-name=" 228371320"/><path id="_227668456" d="m125.6657 293.111c-2.3252 18.0176 14.2954 19.3125 34.7939 19.3125 15.773 0 22.8032-.5508 24.1978-12.9199-4.8467-5.0723-12.083-9.9121-22.8321-12.4551-16.3056-3.8574-28.5693 1.0566-36.1596 6.0625z" fill="#f9d1c8" data-name=" 227668456"/><g><path id="_228340928" d="m96.4718 208.7077036c-18.5928-33.1493992-9.4609-55.1572986-20.0732-74.9618981-10.6123-19.8115995-16.8999-27.1474993-4.9678-24.4648994 11.9321 2.6816999 28.1748 20.5741995 28.1748 20.5741995s-.958-15.5419996-10.8965-31.3827992c-9.9404-15.8407996-11.3027-26.1249993-8.4717-40.007799 2.8301-13.8749996 5.9903-21.8555074 7.9502-9.1747998 1.9605 12.6806997 13.189 16.8759996 25.375 26.4237993 12.1861 9.5536998 15.479 20.1826995 15.479 20.1826995s3.0113-26.3906993 15.4673-35.6123991c12.4571-9.2215998 21.5918-23.5946994 20.0801-42.1112989-1.5117-18.5233995 10.7803-12.8798997 23.6797 17.8720995 12.9062 30.7518992.3721 61.3124985.3721 61.3124985s15.6884-5.4511999 22.3408-25.6933994c6.6455-20.2362995 17.082-26.0917993 26.9345-29.4442993 9.8526-3.3524999 1.1221 5.7626999-1.5732 22.9774994-2.6953 17.2216996 4.415 31.6679992-.9033 49.8593987-5.3174 18.1845995-11.4385 26.5233993-11.4385 26.5233993s10.1973-2.7352999 16.7969-14.7587053c6.6055-12.0234941 11.7246-20.043 17.4277-22.9316938 5.7022-2.8944999-.5517 9.7470998-2.0654 21.7626938-1.0752 8.5518054.2861 62.6406041-32.79 92.3838033-30.5606 27.4853993-105.3628 29.0653993-126.8985-9.3280998z" fill="#e89705" data-name=" 228340928"/><path id="_228108400" d="m126.0675 207.0876036c-10.2925-18.3496995-5.2353-30.5390992-11.1103-41.500999-5.876-10.9677997-9.3565-15.0302996-2.7505-13.5439997 6.604 1.4873 15.5971 11.3867997 15.5971 11.3867997s-.5297-8.5976998-6.0322-17.3681996c-5.5039-8.7704998-6.2568-14.4667996-4.6904-22.1474994 1.5669-7.6815998 3.3164-12.0965997 4.4018-5.0799999 1.0855 7.0174998 7.3013 9.3416998 14.0464 14.6268996 6.7456 5.2909999 8.5699 11.1728997 8.5699 11.1728997s1.6665-14.6122996 8.5629-19.7177995c6.896-5.0985999 11.9522-13.0585997 11.1153-23.3095994s5.9687-7.1239998 13.1123 9.8984997c7.1435 17.022394.2051 33.939394.2051 33.939394s8.6845-3.0204948 12.3662-14.2216945c3.6806-11.2059997 9.457-14.4463055 14.9072-16.3046996 5.458-1.8525.625 3.1933941-.8691 12.7197997-1.4942 9.5340998 2.4433 17.5340996-.4981 27.6053993-2.9414 10.0654997-6.334 14.6865996-6.334 14.6865996s5.6436-1.5215 9.3018-8.1738998c3.6514-6.6581998 6.4863-11.0995997 9.6465-12.7001997 3.1601-1.5927-.3057 5.3974999-1.1416 12.0566949-.5977 4.7275046.1523 34.6689039-18.1582 51.1416035-16.9161 15.2089996-58.3243 16.0858996-70.2481-5.1659999z" fill="#d43436" data-name=" 228108400"/></g></svg>