<svg id="color" viewBox="0 0 320 320" xmlns="http://www.w3.org/2000/svg"><path id="_225031008" d="m36.0391916 159.3205s21.7020995-54.1294 50.2284987-77.5347c28.5273993-23.4072 49.4960987-2.9277 51.2030987 9.2646 1.7071 12.1924-13.8993996 5.8521-24.1380994.731-10.2421997-5.1196-22.0336897-1.2754-35.6899991 24.5698-13.6547997 25.8443-9.7636906 48.3692-9.7636906 48.3692l-31.8398084-5.3999zm247.9228937 0s-21.7041995-54.1294-50.2290854-77.5347c-28.5268126-23.4072-49.4956121-2.9277-51.2026121 9.2646-1.707 12.1924 13.8993996 5.8521 24.1381994.731 10.2406997-5.1196 22.0336994-1.2754 35.6898991 24.5698 13.6542997 25.8443 9.7621998 48.3692 9.7621998 48.3692z" fill="#ffb2bc" data-name=" 225031008"/><path id="_223776648" d="m51.2124913 150.1735c-26.6117993 7.7461-28.4623993 12.6304-25.9369993 24.5879 2.5248999 11.9585 10.2709997 6.3994 12.6303997 24.2524 2.3588999 17.8531 18.1894995 46.9888 47.6635988 47.8325 29.4735993.8418 49.6835987-5.0517 62.9891984-30.8203 5.7587999-11.1567 6.1855998-25.2783 2.4653999-37.8447 5.9759998-1.3232 11.9750997-1.3223 17.9515995 0-3.7206883 12.5664-3.2948999 26.688 2.4638999 37.8447 13.3065997 25.7686 33.5170992 31.6621 62.9906984 30.8203 29.4721993-.8437 45.3041989-29.9794 47.6635988-47.8325 2.3593999-17.853 10.1034997-12.2939 12.6298997-24.2524 2.5272999-11.9575.6748-16.8418-25.9365993-24.5879-19.9745995-5.8154-71.1239982-10.6563-88.2938978 7.3965-1.4912 1.5669-2.8764999 3.2724-4.1483999 5.0903-9.8847998-2.6152-22.8066994-2.6152-32.6899992 0-1.272-1.8164-2.6571999-3.5234-4.1498889-5.0903-17.1699105-18.0528-68.3183093-13.2119-88.2925087-7.3965z" fill="#ffb2bc" data-name=" 223776648"/><path id="_225029112" d="m69.5694908 169.5402s20.8856995-6.3999 42.9481989-1.8521c22.0624994 4.5479 27.1143103 17.6856 24.7568994 36.0425-2.3574999 18.3589-17.8515891 26.6089-37.3886991 27.2837-19.5375995.6748-41.9384989-11.6191-43.2861989-31.4932-1.3466-19.874 1.1788-27.1176 12.9697997-29.9809z" fill="#73c4b4" data-name=" 225029112"/><path id="_226420760" d="m81.7007905 167.0519c3.6879999-.5137 8.0263998-.9214 12.7514997-.9853-9.2196998 14.4116-21.5151995 33.4946-31.6108992 49.1352-1.9808999-2.4883-3.5687999-5.2373-4.6571999-8.2148 7.7026998-13.1216 16.5922996-28.2032 23.5165994-39.9351zm21.6874995-.6763c2.9838999.2544 6.0434998.6763 9.1293998 1.3125 8.5190998 1.7554 14.5019996 4.794 18.4999995 8.9185l-34.9989991 54.3735c-9.6122998-.4843-19.5273995-3.9384-27.0190993-9.749z" fill="#fefefe" data-name=" 226420760"/><path id="_225023472" d="m250.4297862 169.5402s-20.8851995-6.3999-42.9481989-1.8521c-22.0624994 4.5479-27.1156993 17.6856-24.7577994 36.0425 2.3588999 18.3589 17.8524995 26.6089 37.3900991 27.2837s41.9379989-11.6191 43.286113-31.4932c1.3461859-19.874-1.1787141-27.1176-12.9702138-29.9809z" fill="#73c4b4" data-name=" 225023472"/><path id="_226418528" d="m250.4297862 169.5402s-8.8588998-2.7134-21.1332995-3.3501l-35.6498991 56.8672c6.7431998 5.0727 16.0282996 7.5976 26.4672993 7.957.5054.0176 1.0132.0244 1.522.0244l37.0326991-57.5322c-2.0141999-1.8604-4.7118999-3.1094-8.2387998-3.9663zm-30.3529992-3.3901c-4.0565999.1835-8.3031998.6523-12.5951997 1.538l-.0674.0147c-7.7846998 13.2021-16.8158996 28.5395-23.8085994 40.4873.8682 3.1963 2.1904121 6.0259 3.9022999 8.5127 9.1972998-14.2363 22.0175994-34.1074 32.5688992-50.5527z" fill="#fefefe" data-name=" 226418528"/><path id="_223781544" d="m282.7666854 168.9508s-9.9359997-1.0952-13.3885997 3.1997c-3.4531999 4.2935 4.5477999 6.9058 11.2840997 5.1372 6.7363998-1.7695 7.1581998-6.4013 2.1044999-8.3369zm-245.5340938 0s9.9364997-1.0952 13.3890997 3.1997c3.4506999 4.2935-4.5492999 6.9058-11.2841997 5.1372-6.7362998-1.7695-7.1581998-6.4013-2.1048999-8.3369z" fill="#f7d749" data-name=" 223781544"/><g fill="#242947"><path d="m90.8623903 248.925c-1.7568 0-3.5399999-.0279-5.3500999-.0796-1.104-.0313-1.9736-.9522-1.9419-2.0562.0318-1.103.9434-1.9526 2.0561999-1.9419 27.0927993.7681 47.8584096-3.9878 61.1552985-29.7387.5068-.982 1.7134-1.3677 2.6942999-.8594.9815.5063 1.3662 1.7129.8594 2.6943-13.3520997 25.8589-33.4735887 31.9815-59.4731985 31.9815zm138.6206097-.0059c-17.8872128 0-30.5156125-2.9897-40.5136122-9.5132-.9253-.6035-1.1861-1.8428-.5821-2.7676.6031-.9253 1.8404-1.1875 2.7675999-.582 10.1806997 6.6421 23.5082994 9.353 43.2167989 8.791 30.0703134-.8608 43.8007989-31.4277 45.7393134-46.0957.145-1.0947 1.1425854-1.8691 2.2450854-1.7207 1.0947.145 1.8652 1.1499 1.7207 2.2451-2.6522999 20.0694-19.7914995 48.7163-49.5907854 49.5694-1.7114133.0488-3.3799133.0737-5.003.0737zm-53.1381119-84.2588c-.17 0-.3418-.0215-.5118-.0664-9.6180881-2.5444-22.0482994-2.5444-31.6664992 0-.81.2153-1.6689-.0991-2.1498999-.7866-1.2304-1.7569-2.5624999-3.3911-3.9598999-4.8579-15.6386996-16.4429-64.4863984-13.2036-86.2851978-6.8555-8.9481998 2.6045-14.9281996 4.8457-18.8192995 7.0542-.9614.5469-2.1811999.209-2.7265999-.752-.5454-.9609-.2085-2.1816.752-2.7265 4.1693999-2.3662 10.4213997-4.7227 19.6757995-7.4165 19.0716995-5.5528 72.1415982-11.1538 90.3006977 7.9385 1.231 1.2924 2.4145999 2.7011 3.5292999 4.2002 9.5825998-2.2623 21.4482995-2.2627 31.0317992-.0005 1.1079-1.4908 2.2909999-2.899 3.5292999-4.2002 18.1590995-19.0938 71.2289982-13.4908 90.3016977-7.938 10.2441997 2.98 16.6918996 5.4941 20.9062995 8.1513.9341.5894 1.2138 1.8243.625 2.7588-.5889.9346-1.8228 1.2139-2.7587999.625-3.8324999-2.417-10.1527853-4.8618-19.8900995-7.6943-21.8012994-6.3467-70.6484982-9.5874-86.2861978 6.8545-1.4072 1.4785-2.7387999 3.1128-3.958488 4.8574-.3799119.544-.9966119.8545-1.6391119.8545z"/><path d="m263.402 201.5211c-.0454141 0-.0913141-.0014-.1372141-.0043-1.1021-.0748-1.9351-1.0289-1.8604-2.1309 1.3145-19.4033-1.146-25.4009-11.4466997-27.9023-.0376-.0088-.0756862-.0196-.1128-.0308-.2046-.0625-20.6865995-6.1919-41.9594989-1.8057-9.7621998 2.0122-16.2899996 5.7681-19.9569995 11.481-.5967.9292-1.8326 1.2002-2.7631999.603-.9297-.5967-1.1997-1.834-.6031-2.7632 4.2789121-6.667 11.6435997-10.997 22.5156994-13.2387 21.9442994-4.5206 42.3910989 1.4321 43.8798989 1.8813 13.8910996 3.3975 15.7245996 13.0469 14.4378996 32.0459-.0717 1.0562-.9505858 1.8647-1.9935858 1.8647z"/><path d="m98.3404901 233.0407c-20.3300995 0-42.3593989-13.0811-43.7363989-33.3843-.0747-1.102.7583-2.0562 1.8604-2.1309 1.1069-.061 2.0560999.7588 2.1308999 1.8604 1.2563 18.5322 22.3329994 30.2871 41.2216089 29.6294 12.0771897-.417 32.7450892-4.2896 35.4736891-25.5396.1406-1.0952 1.1406-1.8667 2.2386999-1.729 1.0952.1407 1.8697 1.1431 1.729 2.2388-2.2679999 17.6631-16.5936996 28.2432-39.303699 29.0278-.5356.0181-1.07569.0274-1.6142.0274z"/></g></svg>