<svg id="color" viewBox="0 0 320 320" xmlns="http://www.w3.org/2000/svg"><path id="_204192776" d="m77.427 61.8806s60.9003753-58.1094 125.0304-29.5283c64.1328 28.585 94.4922 96.8984 88.0117 150.0986-6.4863 53.1992-19.1953 69.1958-8.7217 91.4014 10.4737 22.208-10.9638 27.6704-31.2998 15.001-20.3359-12.669-45.2334-11.7154-70.2656-3.0015-25.0304251 8.7139-93.7784234-16.8657-128.1739225-69.2651-34.3949991-52.3994-34.5976991-94.8677 25.4189225-154.7061z" fill="#f7d749" data-name=" 204192776"/><path id="_204193352" d="m39.241 133.5574s16.481-57.8594 69.0316761-83.4326c52.5507987-25.5733 117.2589239-25.5474 127.3849239 37.8046 10.1328 63.3516-67.54 110.6221-118.5548242 116.6758-51.0131987 6.0518-91.2831977-22.7597-77.8617758-71.0478z" fill="#ffeec8" data-name=" 204193352"/><g fill="#e7bb24"><path id="_204193136" d="m138.3986753 112.2146s-22.5213994-35.5938-32.5702992-40.3828c-10.0507997-4.791-23.2548994 6.4883-29.8768992 18.5342-6.6215998 12.0459-6.4041998 16.1025 13.0731997 21.9643 19.4813995 5.8618 56.5497986 11.02 49.3739988-.1157z" data-name=" 204193136"/><path id="_204194312" d="m146.2975751 108.8083s-16.5062996-23.2187-22.6692994-35.1938c-6.1631998-11.9751-.337-20.6958 15.8025996-25.0483 16.1376996-4.3545 23.8810247-3.2549 22.8537247 10.5127-1.0293 13.7656-4.6979252 38.5341-6.4883251 44.8662-1.7897 6.3349-6.3067998 10.2822-9.4986998 4.8632z" data-name=" 204194312"/><path id="_204194504" d="m159.6105748 109.9451s4.9318252-35.4483 12.4425252-49.3907c7.5108-13.9433 21.1797-10.7192 33.0195 1.752 11.834 12.4687 12.8067 22.3877-1.7841 31.332-14.5909 8.9453-30.7071 15.4658-35.1748 18.0752-4.4668 2.6084-10.2052252 4.4253-8.5031252-1.7685z" data-name=" 204194504"/><path id="_204194816" d="m166.0238 117.2722s38.875-15.6738 47.2363-13.9922c8.3614 1.6797 5.379 19.5225-.2705 27.961-5.6494 8.4384-22.1269 5.624-39.7002 2.2197-17.5806251-3.4048-22.502025-9.5098-7.2656-16.1885z" data-name=" 204194816"/><path id="_204195008" d="m152.9260749 132.1492s29.2921251 8.0537 37.9102251 16.5605c8.6133 8.5039-12.8955 19.9014-23.2539 26.7774-10.3595252 6.875-16.450325 7.6865-20.3766249-11.8135-3.9261999-19.499-1.8149-34.8467 5.7202999-31.5244z" data-name=" 204195008"/><path id="_204195320" d="m139.305 134.8308s.8475753 36.4004-5.1402246 48.0576c-5.9886998 11.6582-25.0707754 12.708-38.142499 9.4649-13.0747997-3.2437-24.1479994-8.2813-9.6367998-22.7618 14.5112996-14.4843 35.8365234-30.3095 39.616199-32.7573 3.7797999-2.4463 14.0893996-7.9829 13.3033244-2.0034z" data-name=" 204195320"/><path id="_204195512" d="m118.0637758 123.4617s-34.9492991-7.4629-46.7031988-7.6319c-11.7542997-.1679-21.0980995 9.0088-22.9291994 28.1543-1.8325 19.1465 4.9008999 29.419 17.1206224 27.4258 12.2197768-1.9922 35.0312763-21.3027 44.857476-30.4707 9.8270998-9.1665 19.6488995-16.2783 7.6542998-17.4775z" data-name=" 204195512"/><path id="_204195824" d="m134.2004754 225.154c2.4042999-.559 4.8065999.9385 5.3657999 3.3428.559 2.4043-.937 4.8076-3.3433999 5.3662-2.4042999.5586-4.8070999-.9389-5.3661999-3.3432-.5586-2.4043.9396-4.8091 3.3437999-5.3658zm48.3780246 27.0499c4.8379-1.1241 9.6758 1.8886 10.8027 6.7299 1.1211 4.8409-1.8935 9.6783-6.7314 10.8023-4.8447 1.124-9.6816-1.8887-10.8027-6.7315-1.127-4.8408 1.8877-9.6748 6.7314-10.8007zm-31.696425-12.6885c.791-.1836 1.582.3095 1.7656 1.1001.1836.7905-.3094 1.5796-1.1001 1.7651-.7905.1817-1.5815-.3096-1.7651-1.1001s.3096-1.5815 1.0996-1.7651zm-15.5272996 27.522c1.0761-.2496 2.1512999.4184 2.4012999 1.496.2495 1.0757-.4204 2.1499-1.4960753 2.4009-1.0761246.2481-2.1499246-.4199-2.4013246-1.4961-.2494-1.0771.4204-2.1494 1.4961-2.4008zm22.3280994-7.6031c1.8037-.4184 3.6064252.7041 4.0245252 2.5078.419 1.8037-.7031 3.604-2.5055252 4.0225-1.8036.4204-3.6058748-.7022-4.0243999-2.5059-.4184-1.8037.7036-3.6054 2.5053999-4.0244zm14.8985252-35.9502c5.1914-1.2065 10.377 2.024 11.5821 7.2129 1.2041 5.1904-2.0225 10.374-7.2149 11.5801s-10.374-2.0244-11.582-7.2129c-1.2041-5.1904 2.0264-10.376 7.2148-11.5801zm-38.4678246 25.7246c1.708-.3964 3.4139999.6665 3.8114999 2.375.3974 1.7105-.667 3.4175-2.3749999 3.8135-1.711.3965-3.4179999-.6665-3.8134999-2.375-.3965-1.709.6665-3.416 2.3769999-3.8135zm-17.7954996-11.0849c2.5317999-.5889 5.0615999.9873 5.6494999 3.519.5893 2.5332-.9869 5.0615-3.5190999 5.6494-2.5331999.5874-5.0614758-.9873-5.6488999-3.519-.5879-2.5313.9868-5.0615 3.5184999-5.6494z" data-name=" 204195824"/></g><path d="m103.8425762 207.4031c-27.4120993.0005-50.3676987-10.3907-61.6738984-28.521-.5844-.937-.2983-2.1709.6392-2.7554.9375-.584 2.1708999-.2988 2.7553999.6392 12.2889997 19.706 39.611299 29.6093 71.3017223 25.8535 31.5972751-3.75 76.3336-24.419 100.7008-56.667 13.8789-18.3682 19.3018-37.7837 16.1172-57.7075-2.6445-16.5528-9.2227-29.4195-19.5508-38.2422-.8398-.7173-.9394-1.9795-.2217-2.8194.7168-.8398 1.9795-.9404 2.8194-.2216 11.0722 9.457 18.1045 23.1347 20.9023 40.6523 3.3633 21.04-2.3144 41.4795-16.875 60.7495-25.042 33.1411-70.982525 54.378-103.4205242 58.2276-4.5922999.5449-9.1010998.812-13.4940997.812z" fill="#242947"/></svg>