<svg id="Layer_1" viewBox="0 0 320 320" xmlns="http://www.w3.org/2000/svg" data-name="Layer 1"><path id="_226911520" d="m214.764 15.8017s11.6733936 7.313 32.3442931-.9844c20.6722995-8.2973 20.2494995-1.9702 11.9535997 10.2661-8.2968928 12.2339-6.3251998 27.5606 8.8612998 34.8731 15.1874996 7.3115 8.7186998 8.0151-4.3583999 14.7656-13.0790997 6.75-26.7899993 21.0244-20.3915995 37.4082 6.3998998 16.3818 25.9472993 9.1387 24.9628994 16.5928-.9844 7.4536 9.7792998 22.5713 27.7777993 29.8838 18.0004995 7.3115-19.1254995 3.0923-24.1879994 21.9375-5.0624999 18.8432-7.3129998 16.5927-28.1249993 11.8125-20.8114995-4.7818-34.3124991-10.4068-38.813399 15.4687-4.4999999 25.8745 5.3456999 41.624-2.5292999 40.499-7.8759998-1.124-18.0009995-16.0322-36.5634991-14.9052-18.5629995 1.1259-12.9379997 5.3447-26.1562993-29.5323-13.2201997-34.875-39.094699-23.625-56.5321986-18.8432-17.4374972 4.7817-18.5624972-28.6875-47.5321972-48.0933-28.9683-19.4082-15.1875-16.3125 9.5635-14.3442 24.749 1.9682 36.5628972-12.3755 22.5-40.7822-14.0635-28.4068-7.4561-20.8121 10.8246973-31.3599 18.2806995-10.5459 16.1728027-48.0952 28.1263993-32.7656 11.9540997 15.3281 15.8905996 19.4062 28.2660993 17.5771 12.3754997-1.8271 19.1254995-2.8115 16.3119996 9.9854-2.8114999 12.7968 4.2177999 23.9072 15.0478996 26.2973 10.8280997 2.3916 27.1425993-23.061 29.9555992-40.7788 2.8114999-17.7177 7.5918056-18.2827 18.6938056-14.978z" fill="#e89705" data-name=" 226911520"/><path id="_207866720" d="m188.9563945 86.3325c3.4208999-1.2256 23.6298994-8.085 42.6083989-6.3389 1.3955.126 2.6337999-.9033 2.7597999-2.3008.1259-1.3955-.9043-2.6323-2.3002999-2.7583-13.4609997-1.2383-27.4360993 1.5952-36.2563991 3.98 13.7001997-14.5508 23.2236994-22.4863 23.3212994-22.5693 1.0723-.9063 1.207-2.5132.3008062-3.585-.9082062-1.0723-2.5127062-1.207-3.585-.2988-.2026061.1709-40.2627051 33.5341-74.9091043 89.581-2.9526999-55.3335-31.7119992-102.8628-31.7978957-103.0058-.7207034-1.2046-2.2822034-1.5967-3.4873034-.878-1.2031.7207-1.5966966 2.2823-.876 3.4873.0879.1465 30.9643992 51.1758 31.3193992 108.4366-2.5771999 4.4033-5.1083999 8.9375-7.5766998 13.5937-33.9740991-30.1948-75.9115961-31.3701-76.0356961-31.375-1.4013-.0498-2.5795 1.0474-2.6289 2.4502-.0498 1.4023 1.0489 2.5806 2.4493 2.6304.1201.0034 41.0379969 1.145 73.7870961 30.9468-19.8657995 38.7402-35.0927991 85.5893-34.8935991 138.0747 0 1.4008 1.1387 2.5395 2.5395999 2.5395 1.4028031 0 2.5414999-1.1387 2.5414999-2.5395-.1963-51.6968 14.8413031-97.8604 34.4481991-136.0298 37.776399 1.686 51.9159987 55.5307 51.9579987 55.6885.3633 1.3574 1.7588 2.164 3.1166999 1.8027 1.3579-.3623 2.1659999-1.7598 1.8023-3.1172-.043-.1646-14.5541996-55.4297-54.3144986-59.2725 2.2411999-4.2089 4.5312999-8.3183 6.8632998-12.3173 69.6356982-10.7764 114.0897971 10.6425 114.2191971 10.7041 1.2701071.5996 2.7885999.0546 3.3871999-1.2149.5996-1.2695.0552-2.7881-1.2148-3.3877-.1289-.0596-44.2011989-21.2915-113.0419971-11.7295 15.2831996-25.2041 31.8027043-45.916 45.4960989-61.1963v-.0009z" fill="#d66a0b" data-name=" 207866720"/></svg>