<svg id="Layer_1" viewBox="0 0 320 320" xmlns="http://www.w3.org/2000/svg" data-name="Layer 1"><path id="_227899936" d="m139.5659 256.2377s-14.5527-14.289-31.7421-35.8315c-8.7168.3037-20.5938-.7901-36.7598-4.5249-54.4209-12.5674-59.752-49.315-40.3125-63.4727 9.1279-6.6445 22.2734-2.959 33.6601 2.8213-19.1211-33.9521-49.541-89.2676 12.0762-119.145 61.6104-29.8794 112.4668-31.2134 157.2871 61.6636 44.8262 92.8779 36.6807 115.1738 36.6807 115.1738s-114.1328 57.0977-130.8897 43.3154z" fill="#d43436" data-name=" 227899936"/><path id="_228331152" d="m99.9634 210.8823c12.4014-6.2837 26.377-11.794 41.8262-15.5821 27.3066-6.6885 38.2549-19.6914 48.7314-32.1377 12.5742-14.9384 24.5508-29.1592 57.9199-33.2851 1.6192 3.7856 3.1192 7.4072 4.5205 10.8779-31.6416 3.2979-42.457 16.1445-53.8291 29.6533-11.6328 13.8125-23.7812 28.2481-54.6533 35.8115-13.7627 3.3741-26.2842 8.191-37.4775 13.7012-2.3047-2.793-4.668-5.8486-7.0381-9.039zm-19.1865-28.2198c.4179-.1787.8359-.3633 1.2539-.5522 9.7539-4.4585 17.9922-11.7749 28.3564-24.7007 11.3526-14.1611 19.1866-23.8843 30.9512-30.2793 11.7119-6.3603 26.5498-8.9268 51.5195-8.5449 23.5225.3603 36.7666-7.2881 43.9776-14.4297 1.7265 3.6435 3.373 7.1836 4.9258 10.6025-9.3877 8.0166-24.6973 15.4493-49.0762 15.0772-22.8584-.3501-36.084 1.8008-45.9561 7.164-9.8056 5.3291-17.0625 14.3389-27.5849 27.4673-11.4258 14.2544-20.7803 22.4868-32.1739 27.7495-2.2304-3.3691-4.3213-6.6074-6.1933-9.5537zm-32.0674-58.1562c-1.6465-3.8892-3.1602-7.8526-4.4541-11.856 8.7031-8.8237 21.9414-16.6377 40.916-14.6655 16.9033 1.7524 26.7627 1.4453 33.3887-1.5073 6.2265-2.7735 10.2705-8.4815 15.4883-17.5425 6.3935-11.0986 11.4531-17.9024 18.3642-20.9414 7.21-3.1665 15.1699-1.8687 26.9746 3.4394 3.9893 1.7959 7.6944 2.8531 11.0205 3.1202 3.42.2753 6.4268-.3135 8.9161-1.8306 2.5625-1.5669 4.7539-4.2158 6.4667-8.0249.2188-.4863.4258-.9927.6309-1.5156 2.543 3.1191 5.0586 6.4697 7.5625 10.0649-2.3975 3.9634-5.3652 6.9731-8.8105 9.0791-4.5879 2.8003-9.8653 3.9087-15.668 3.4409-4.6152-.3686-9.5606-1.7529-14.7324-4.0801-8.6582-3.8935-13.9825-5.0688-17.8321-3.3774-4.1435 1.8208-7.9345 7.2134-13.1328 16.2427-6.373 11.0688-11.5586 18.1494-20.6406 22.1943-8.6777 3.8692-20.1963 4.4165-39.1582 2.4463-17.3672-1.8037-28.6602 7.0195-35.2998 15.3135z" fill="#f58788" data-name=" 228331152"/><path id="_228813656" d="m66.6421 154.0151c-.6709-1.2315-2.2178-1.6866-3.4453-1.0157-1.2354.6705-1.6875 2.2139-1.0166 3.4454.0596.1147 21.75 39.999 43.7051 65.6142.917 1.0674 2.5234 1.1919 3.5849.2793 1.0694-.9131 1.1953-2.5195.2793-3.585-21.623-25.2304-43.0478-64.625-43.1074-64.7382z" fill="#ab4d13" data-name=" 228813656"/><path id="_227899456" d="m181.771 213.1244s32.9434-22.312 60.4619-35.1621c27.5186-12.8481 27.4717-16.875 38.3076-1.6113 10.8418 15.2627 22.3868 37.4561 18.0586 48.8174-4.3291 11.3594-53.1396 29.416-92.0449 50.6113s-49.5215 37.4512-64.1338 16.5215c-14.6191-20.9297-16.7763-24.2383-19.3193-32.1401-2.5361-7.9038 6.4863-16.3999 58.6699-47.0381z" fill="#e89705" data-name=" 227899456"/><path id="_31806312" d="m141.8628 257.7563c-.7695-1.1719-2.3496-1.4922-3.5254-.7188-1.1679.7749-1.4873 2.355-.7168 3.5254l18.1582 27.4956c.7696 1.1719 2.3496 1.4937 3.5254.7188 1.168-.7749 1.4932-2.355.7168-3.5269zm122.0801-74.0342c-.6777-1.2319-2.2246-1.6816-3.459-1.0059-1.2285.6753-1.6797 2.2237-1.0029 3.4551l14.666 26.7207c.6768 1.232 2.2236 1.6817 3.459 1.0059 1.2275-.6753 1.6797-2.2222 1.0029-3.4536zm-20.2422 9.2217c-.7578-1.1885-2.3311-1.5405-3.5195-.7871-1.1885.7539-1.5401 2.3271-.7832 3.5156l19.9638 31.5137c.75 1.1884 2.3233 1.5405 3.5118.7871 1.1884-.7539 1.54-2.3286.79-3.5156zm-21.6641 13.8056c-.7304-1.1914-2.2968-1.5634-3.4921-.8261-1.1954.7363-1.5665 2.3037-.8301 3.4951l18.9355 30.5928c.7295 1.1919 2.2969 1.5634 3.4922.8271 1.1943-.7373 1.5596-2.3042.8291-3.4961zm-19.6386 13.7793c-.7696-1.1718-2.3496-1.4921-3.5254-.7168-1.168.7735-1.4863 2.3536-.7168 3.5254l17.8262 26.9248c.7763 1.1719 2.3564 1.4922 3.5253.7168 1.1748-.7749 1.4942-2.3535.7168-3.5254zm-20.7139 13.6768c-.7959-1.1553-2.3838-1.4443-3.5381-.6475-1.1562.7969-1.4472 2.3804-.6504 3.5352l16.8887 24.4287c.7969 1.1553 2.3838 1.4443 3.5391.6475 1.1552-.7969 1.4414-2.3819.6445-3.5371zm-22.6592 12.9263c-.7568-1.1817-2.3301-1.5249-3.5117-.7671-1.1816.7588-1.5273 2.332-.7705 3.5156l16.8965 26.1943c.7568 1.1822 2.3369 1.5254 3.5185.7671 1.1817-.7583 1.5205-2.3315.7637-3.5151z" fill="#ab4d13" data-name=" 31806312"/></svg>