<svg id="Layer_1" viewBox="0 0 320 320" xmlns="http://www.w3.org/2000/svg" data-name="Layer 1"><path id="_228278120" d="m202.0193 54.4795s20.9668-40.8339 55.4961-19.9707c34.5235 20.8672-5.3105 62.1871-5.3105 62.1871s30.9248-4.1177 28.6807 19.0327c-2.2442 23.1533-31.9737 25.7461-31.9737 25.7461s20.3887 8.6294 13.6162 25.0263c-6.7646 16.3985-47.3633 14.2325-47.3633 14.2325s18.4766 15.7714 6.7325 34.0019c-11.751 18.2295-52.4492 3.6318-52.4492 3.6318s15.164 10.3985 4.8798 26.1182c-10.2773 15.7197-42.5498 4.1694-42.5498 4.1694s13.4912 17.6036-5.4238 28.108c-18.915 10.5048-58.6836-7.542-58.6836-7.542s-27.8906-32.8116-20.6142-64.9102c7.2832-32.0952 33.3017-12.9814 33.3017-12.9814s-20.8535-28.5508-7.2363-58.6861c13.6162-30.1362 30.54-6.5991 30.54-6.5991s.0723-48.5435 18.5293-61.2803c18.457-12.7392 27.0742 19.1299 27.0742 19.1299s-3.4121-32.5845 12.1426-45.3115c15.5488-12.7256 40.6113 15.8974 40.6113 15.8974z" fill="#e66f25" data-name=" 228278120"/><path id="_204754720" d="m80.0193 212.2911c-.2451-1.3799-1.5664-2.2974-2.9472-2.0518-1.3809.2471-2.2969 1.5684-2.0518 2.9478.0137.0766 4.667 26.1015 4.9395 38.0966-14.5127 15.4991-28.2022 28.1084-39.7813 35.4449-1.1816.7529-1.54 2.3266-.7832 3.5151.75 1.1885 2.3301 1.5405 3.5186.7866 12.0234-7.6181 26.2441-20.7656 41.2812-36.8935.1133-.1026.2197-.2119.3125-.3335 7.2031-7.7344 14.586-16.1509 22.0088-24.9678 5.0322-.7485 29.5303-4.2739 45.624-4.3852 1.4073-.0035 2.5362-1.147 2.5362-2.5494-.0069-1.4008-1.1485-2.5346-2.5567-2.5297-13.0322.0898-31.1435 2.3139-40.7304 3.625 6.4668-7.814 12.9394-15.8824 19.3134-24.0318.0928-.1045.1787-.2158.2588-.3335 9.2676-11.8594 18.3233-23.8711 26.8682-35.4746 5.6836-1.96 42.9551-14.5596 70.3682-17.6499 1.3935-.1543 2.4033-1.4126 2.25-2.8081-.1524-1.396-1.4141-2.4033-2.8077-2.251-22.4072 2.5244-51.1416 11.2417-64.6123 15.6172 30.4004-41.6924 53.1133-76.3882 53.2588-76.6103.7705-1.1719.4453-2.7471-.7236-3.5157-1.1748-.77-2.7481-.4448-3.5186.7271-.0996.1528-10.8349 16.5415-27.3398 40.2378 1.5137-17.3614 1.6533-35.7979 1.6533-35.8609.0127-1.4028-1.1084-2.5527-2.5098-2.5693-1.4072-.0166-2.5556 1.1069-2.5693 2.5093 0 .0732-.1924 25.5127-2.582 44.5039-7.3233 10.3984-15.5225 21.8555-24.2666 33.7563-.1592.1646-.2989.3487-.4053.5474-6.8574 9.3252-14.0479 18.9102-21.4102 28.4707 5.5372-44.9585 2.7413-82.4346 2.7344-82.5508-.0928-1.4009-1.3076-2.4629-2.708-2.3701-1.4014.0928-2.4639 1.3076-2.3701 2.709.0059.1211 3.1328 42.0268-3.8711 90.2187-7.5352 9.6328-15.2031 19.1465-22.8252 28.2393-.2324.1904-.418.4199-.5713.6768-6.1406 7.3066-12.2549 14.3374-18.2568 20.9199-1.0752-13.3897-4.7139-33.7432-4.7276-33.8125z" fill="#ab4d13" data-name=" 204754720"/></svg>