<svg id="Layer_1" viewBox="0 0 320 320" xmlns="http://www.w3.org/2000/svg" data-name="Layer 1"><path d="m163.0197 41.4933c-4.9497 8.002-7.5655 18.1943-8.875 28.085-4.8301-10.4571-12.2691-21.3877-22.4034-21.9756l-.206-.0098c-2.6543-2.8926-6.1895-5.165-10.6992-6.3174-4.1543-1.0605-8.043-1.4091-11.6162-1.1718-6.4502.4301-11.8628 2.7773-15.9971 6.3139-4.1416 3.5435-6.9912 8.2788-8.3174 13.4776-.709 2.7749-.9805 5.6928-.7866 8.6391.063.9346.8716 1.6416 1.8061 1.5801.9356-.0615 1.6426-.8716 1.5801-1.8057-.1709-2.5747.0713-5.1357.6934-7.5791 1.1587-4.5341 3.6347-8.6587 7.23-11.7343 3.5986-3.0821 8.3403-5.127 14.017-5.5054 3.2178-.2144 6.7486.1079 10.5547 1.0786 2.6817.6855 4.9571 1.8442 6.8565 3.3281-4.4737.8379-8.002 3.2066-10.4302 6.3106-1.7046 2.1777-2.8599 4.7187-3.4146 7.3408-.5542 2.6309-.5078 5.3594.1978 7.9072 1.23 4.4453 4.4268 8.3076 9.8574 10.1348 4.9229 1.6562 8.8198.0381 11.4224-3.376 1.4014-1.8408 2.3935-4.2139 2.9267-6.8599.5191-2.5756.6089-5.4243.2237-8.2924-.4395-3.2666-1.4951-6.5723-3.2295-9.5518 8.8232 2.6904 15.2031 15.0059 19.0176 24.918-1.2168 15.5293.3584 28.7539.4262 29.1787 0 0 14.5679 15.541 15.4361-1.4932.8662-17.0361 0-25.5044 28.2094-49.4316 28.2095-23.9238-20.3803-35.9839-34.4799-13.1885zm-28.9234 27.1968c-.4331 2.1411-1.2134 4.0347-2.3042 5.4658-1.7256 2.2671-4.3349 3.3364-7.6494 2.2207-4.2358-1.4258-6.7222-4.4067-7.667-7.8242-.5576-2.0151-.5908-4.1958-.144-6.3154.4497-2.1246 1.3862-4.1841 2.7632-5.9439 2.3574-3.0137 6.0419-5.1631 10.8418-5.3242 2.4399 3.0889 3.8457 6.8447 4.3437 10.5444.3369 2.4981.2607 4.9644-.1841 7.1768z" fill="#12706c"/><path id="_226581496" d="m131.1901 93.7658s4.249-4.5528 13.9619-4.0977c9.7143.4561 15.937 8.3486 15.937 8.3486s4.7056-7.1337 13.3579-8.1962c8.6509-1.0621 12.7485 3.1884 12.7485 3.1884s32.3311-28.08 67.2393.7569c34.9082 28.8388 51.3008 91.0674 36.4272 133.5639-14.8735 42.4986-40.6762 27.3218-40.6762 27.3218s-8.6504 18.0615-21.2481 23.3731c-12.5962 5.311-27.9277-.7588-27.9277-.7588s-6.5264 10.0166-25.1953 13.0527c-18.6675 3.0352-33.8457-15.1787-33.8457-15.1787s-5.6138 7.4375-27.6221 8.0449c-22.0088.6074-35.2139-20.7954-35.2139-20.7954s-58.1254-.7534-55.3935-67.5366c2.7305-66.7822 47.3515-118.9942 107.4492-101.0869z" fill="#e89705" data-name=" 226581496"/><path id="_227901136" d="m198.5602 276.5885c-.3735 1.353.4199 2.7534 1.7729 3.127 1.3526.3735 2.753-.4199 3.127-1.7725.1177-.4253 42.1064-147.8013-41.2739-182.2202l-.1314-.0576-.0029-.002-.0567-.0215v-.0019l-.1162-.041-.0078-.002-.0498-.0146-.0117-.0039-.0483-.0147-.0132-.0034-.0469-.0112-.0146-.0039-.045-.0098-.0166-.0049-.0429-.0083-.0201-.0034-.0395-.0083-.0234-.0034-.0381-.0064-.0235-.0034-.0361-.0049-.0269-.0034-.0332-.0034-.0283-.0015-.0332-.0034-.0278-.0019-.0332-.0015-.0303-.0015h-.0312l-.0303-.0019h-.0615l-.0293.0019-.0616.0015h-.0332l-.0283.0015-.0332.0039-.0264.0014-.0351.0049-.0264.0034-.0351.003-.0244.0039-.0352.0048-.0264.0049-.0351.0049-.0244.0049-.0352.0068-.0596.0132-.0254.0064-.0346.0088-.0249.0063-.0332.0083-.0264.0068-.0332.0118-.0249.0078c-.0679.0215-.1382.0468-.2041.0752l-.0283.0117c-.065.0264-.128.0596-.1909.0928l-.0313.0166-.0234.0131-.0313.0166-.022.0132-.0332.02-.018.0113-.0352.022-.0166.0131-.0361.0235-.0152.0097-.0483.0367-.0395.0297-.0103.0069-.0395.0332-.0083.0049-.0416.0346-.0053.0054-.043.0381-.0029.0029-.0449.0401v.0019l-.045.041-.0034.0034-.0395.0415-.0035.002c-1.6782 1.6592-50.7163 51.4063-19.7543 179.4814.3281 1.3643 1.7026 2.2022 3.0668 1.8721 1.3628-.3291 2.2007-1.7031 1.8726-3.0674-27.9609-115.6631 9.9951-165.2671 17.273-173.4731 77.1713 33.8511 36.9614 175.1099 36.8486 175.5195zm-66.4243-180.4624c1.3027-.5224 1.9355-2.0029 1.414-3.3061-.5224-1.3042-2.0029-1.937-3.3076-1.4156-.2241.0909-78.876 30.1993-53.6191 171.4327.247 1.3862 1.5732 2.309 2.958 2.0615 1.3857-.2451 2.3086-1.5713 2.0625-2.9575-24.5215-137.1275 50.2783-165.7286 50.4922-165.815zm55.5166-5.6181c-1.3799-.252-2.7041.6621-2.9561 2.0419-.2539 1.379.6602 2.7032 2.041 2.9571.2578.0469 90.7784 15.0429 60.959 158.6264-.2856 1.3746.5972 2.7222 1.9717 3.0059 1.376.2856 2.7217-.5972 3.0073-1.9717 30.8902-148.7339-64.7495-164.6098-65.0229-164.6616z" fill="#d66a0b" data-name=" 227901136"/></svg>