<svg id="color" viewBox="0 0 320 320" xmlns="http://www.w3.org/2000/svg"><path id="_223834200" d="m182.1866 67.1109c-6.4468 52.3481 3.9824 61.4468-6.3838 106.149925-10.3696 44.7050989-15.2827 66.117175 14.2407 83.9540979 29.524 17.8300772 54.46583-16.5810996 62.20563-70.5937982 7.73967-54.0185246 27.96917-53.5156246 36.88477-97.4121246 12.3295-60.7109-97.5425-98.4604-106.9473-22.0981z" fill="#74c4eb" data-name=" 223834200"/><path id="_225018072" d="m227.9512 64.542s.7378 18.752 14.71443 32.5386c13.9795 13.7847 42.89787 47.9483 39.29537 76.8667249-3.6025 28.9198993-42.56147 32.6230992-46.2685 25.6532994-3.7056-6.9696998 29.0356-8.1806243 28.4926-34.0116991-.5425-25.8232251-19.03607-43.7549251-30.082-57.1084251-11.0479-13.355-18.2334-10.3193-33.0439 7.2354-14.8111 17.5537-16.3829 30.1425-9.8287 44.2446 6.5513 14.1060249 9.128 22.1772247 5.522 23.3882247-3.6074 1.2041-22.584-16.4579996-26.5234-36.1299247-3.9375-19.668 10.415-34.9087 27.5605-47.1094 17.148-12.2002 21.0772-15.9638 22.3252-25.9966 1.2466-10.0327 5.6641-16.9189 7.8364-9.5708z" fill="#fd737b" data-name=" 225018072"/><path d="m245.22133 204.627c-5.1802 0-9.73983-1.1640758-11.29453-4.0868757-.519-.9756-.1489-2.1864999.8267-2.7051243.9741-.5194757 2.186-.1474757 2.7046.8262243.6948 1.3056 6.14353 2.8671999 14.53174 1.3174 12.22796-2.2558999 26.00146-10.3447997 27.98626-26.2822993 3.0318-24.3305249-18.9609-55.7124249-38.71477-75.1933249-.7866-.7754-.7954-2.0415-.01949-2.8281.77439-.7872 2.041-.7955 2.82809-.0196 7.3852 7.2832 44.01707 45.2984 39.87597 78.5352249-2.2525 18.0809995-17.6094 27.2089993-31.23047 29.7216992-2.4687.456-5.0508.7147758-7.4941.7147758zm-74.99423-55.4077c-.9341 0-1.769-.6572-1.959-1.6079-4.5473-22.7144 14.0088-38.9195 28.3619-49.1323.8999-.6407 2.1484-.4307 2.789.4697.6406.8999.4302 2.1489-.4697 2.789-21.3701 15.2066-29.8731 29.5337-26.7593 45.0884.2168 1.083-.4853 2.1367-1.5683 2.3535-.1324.0269-.2647.0396-.3946.0396z" fill="#242947"/><path d="m289.1358 91.2095c-.1318 0-.2656-.0132-.3999-.0405-1.0825-.2197-1.7817-1.2754-1.562-2.3579 3.4668-17.0708-3.1318-34.0654-18.1045-46.626-17.17327-14.4067-41.4634-19.626-59.0713-12.6943-14.5508 5.7295-23.4814 18.8227-25.8266 37.8647-.1348 1.0962-1.1343 1.8779-2.2295 1.7403-1.0962-.1348-1.8755-1.1329-1.7403-2.2295 3.2032-26.0083 17.1743-36.7046 28.3311-41.0972 18.9092-7.4473 44.85943-1.9561 63.1074 13.3516 16.1309 13.5322 23.2212 31.934 19.4536 50.4863-.1924.9482-1.0263 1.6025-1.958 1.6025z" fill="#242947"/><path id="_227411824" d="m134.7086 99.4073c10.3388 51.7187.6167 61.5742 14.2939 105.3789242 13.6787 43.8036989 20.1787 64.7899984-7.9311 84.7782979-28.1099 19.9921995-55.5528-12.4647997-67.3052-65.7499983-11.7515-53.2851987-31.8877-51.2753987-44.0567-94.3828237-16.8281-59.6201 89.9161-105.4702 104.9991-30.0244z" fill="#74c4eb" data-name=" 227411824"/><path id="_227409472" d="m88.8795 100.2579s.665 18.7548-12.2442 33.5463c-12.9101 14.7916-39.1953 51.0191247-33.4433 79.5884239 5.7509 28.5683761 44.8789 29.3544993 48.0547 22.1269994 3.1757-7.2276234-29.5655-5.9911998-30.9537-31.7870992-1.3862-25.7949993 15.7163-45.0572242 25.7329-59.1997242 10.0196-14.1412 17.4117-11.6509 33.4932 4.7475 16.0801 16.3985251 18.586 28.8379248 13.1055 43.3897-5.4805 14.5508241-7.4463 22.7968239-3.7603 23.7304239 3.6861.9335761 21.2925-18.0946995 23.7505-38.005799 2.459-19.9092248-12.9931-34.0342248-31.0019-44.9204248-18.0108-10.8863-22.211-14.3443-24.2046-24.2574-1.9922-9.9121-6.9107-16.4472-8.5288-8.9589z" fill="#fd737b" data-name=" 227409472"/><g fill="#242947"><path d="m79.2833 241.3526232c-1.5601 0-3.1426-.0889-4.6885-.2559-13.7715-1.4892-29.7681-9.4432998-33.3633-27.3037232-6.6118-32.8368752 27.0767-73.4829 33.897-81.2973.7266-.8321 1.9897-.919 2.8218-.1919.8325.7265.9179 1.9897.1919 2.8217-18.2432 20.9024-37.8291 53.8404246-32.9898 77.8785 3.1694 15.7421236 17.5093 22.7793234 29.8726 24.1162233 8.4775.9131 13.7954-1.044 14.3906-2.3993999.4438-1.0108234 1.625-1.4717 2.6357-1.0264 1.0113.4443 1.4707 1.624 1.0264 2.6356999-1.5713 3.5751999-7.4946 5.0224999-13.7944 5.0224999zm73.334-60.9511985c-.0816 0-.1646-.0049-.2476-.0146-1.0962-.1358248-1.875-1.1338248-1.7397-2.2304999 1.9443-15.7421996-7.605-29.3945248-30.0518-42.9644248-.9453-.5712-1.2485-1.8007-.6768-2.7461.5703-.9453 1.8003-1.25 2.7461-.6767 15.0762 9.1138 34.7915 23.8892 31.9522 46.8774248-.125 1.0127-.9873 1.7549-1.9824 1.7549z"/><path d="m124.2008 297.5245218c-2.3174 0-4.6373-.3096-6.9556-.9307-12.752-3.4120999-24.3999-15.9258218-33.6851-36.1884991-.4599-1.0039-.019-2.1913999.9854-2.6513228 1.0029-.4580772 2.1909-.0185772 2.6513.9853228 8.6465 18.8700995 19.6851 30.9413992 31.0821 33.9911991 7.1777 1.919 14.4546.3047 21.6333-4.8016999 11.5888-8.2412998 17.3052-16.7558996 18.5356-27.6093993.1245-1.0967 1.1187-1.8858 2.2124-1.7617 1.0977.124 1.8867 1.1152 1.7622 2.2128999-1.3696 12.0790997-7.5971 21.4608995-20.1919 30.4178992-5.9296 4.2167999-11.9697 6.3359998-18.0297 6.3359998z"/></g></svg>