<svg id="Layer_1" viewBox="0 0 320 320" xmlns="http://www.w3.org/2000/svg" data-name="Layer 1"><path id="_31807680" d="m149.4618 106.5169198s6.8848 32.1235992-31.6152 66.0312983c-38.4932 33.9092991-64.498 47.4199988-63.2236 76.2265981 1.2744 28.8066993 31.8672 59.9111838 83.6191 41.049899 51.7588-18.8681995 94.3281-47.9345988 114.4717-83.8779979 20.1426-35.9481991 4.0762-86.1709978 4.0762-95.0937976 0-8.9233998-71.3838-1.021-107.3282-4.3359999z" fill="#d43436" data-name=" 31807680"/><path id="_228329352" d="m80.9999 203.6127174c-17.1553 14.9316996-27.1865 27.0107993-26.3838 45.1620989 1.2412 28.0468993 30.2813 58.2646985 79.5762 42.4238989-.1924-2.1777999-.4512-4.4081999-.7969-6.7324998-8.2715-55.5956986-34.7949-74.4569981-52.3955-80.853498zm145.1436 35.3359991c10.9551-10.1835997 19.9638-21.2245995 26.5634-33.0058992 9.1417-16.3125996 10.8282-35.5625991 9.9385-52.5635987-14.207-2.2938999-35.1875-.6171-47.9209 23.7529994-13.0058 24.8838994-4.2754 48.2402988 11.419 61.8164984z" fill="#e89705" data-name=" 228329352"/><path id="_224019136" d="m182.0868 28.5081218s13.8955 2.1674999 41.9395-2.5497999c28.043-4.7167999 40.4053.7652 38.626 25.3662994-1.7862 24.6029994 3.5654 54.3026986 2.6757 63.2259984-.8896 8.9228998-33.0166 19.1186995-69.3457 15.9321996-36.3291-3.1865999-52.5146-10.0698997-49.4609-26.6411993 3.0605-16.5707996.8955-35.3099991 2.1709-53.1556987 1.2744-17.8456995 2.29-22.4355994 33.3945-22.1777994z" fill="#e89705" data-name=" 224019136"/><path id="_228619416" d="m252.4482 63.5374209c-.086-1.4023-1.2881-2.4715999-2.6895-2.3900999-1.4072.0815-2.4756 1.2866-2.3896 2.6889999 0 .0796 1.7861 27.5868993 2.038 49.5858987.0069 1.4004 1.1553 2.5292999 2.5567 2.5194999 1.4072-.0117196 2.5351-1.1591 2.5224-2.5614999-.2587-22.3602994-2.038-49.7632196-2.038-49.8427987zm-91.5-24.4764994c-1.209-.7139215-2.7686-.3125-3.4864.896-.7168 1.2099-.3115 2.7718999.8965 3.4857999.0606.0361 20.376 12.3017997 53.6309 7.8505998 33.3554-4.4628999 40.9502-13.5570997 40.9765-13.5839997.9297-1.0556.8233-2.6669999-.2324-3.5966999-1.0556-.9277-2.6689-.8261-3.5976.231-.0137.02-6.4004 7.7079998-37.8038 11.9105997-31.496 4.2158999-50.331-7.1600998-50.3837-7.1932998zm1.0019 25.1371994c0-1.4077-1.1416-2.5492999-2.5488-2.5492999-1.4082 0-2.5498 1.1416-2.5498 2.5492999 0 .0776 0 27.7279993-1.2608 44.4252989-.1064 1.4023.9493 2.6239999 2.3496 2.7284999 1.4004.1045 2.6231-.9492 2.7286-2.3515999 1.2812-16.9496996 1.2812-44.7225989 1.2812-44.8021989zm14.2676 3.3641999c.0273-1.4028-1.0889-2.5643999-2.4893-2.5907999-1.4013-.0268-2.5634 1.0874-2.5888 2.4897999 0 .0976-.5186 34.4764991-.5186 46.1942988 0 1.4092 1.1416 2.5497999 2.5498 2.5497999 1.4072 0 2.5488-1.1406 2.5488-2.5497999 0-12.2421997.4981-45.9989988.4981-46.0932988zm19.3799 1.2632c.0195-1.4023-1.1026-2.5575999-2.503-2.5790999-1.4013-.0219-2.5566 1.0987-2.583 2.5009999 0 .1094-.7627 38.618199-.2519 48.0966988.0732 1.4028 1.2685 2.4833999 2.6689 2.4120999s2.4825-1.2686 2.4102-2.6708999c-.5049-9.3827998.2519-47.6503988.2588-47.7597988zm20.6474-1.6181c-.0263-1.4029-1.1884-2.5165999-2.5898-2.4902999-1.4004.0268791-2.5156 1.1885-2.4893 2.5898791 0 .0859208.7637 29.92182 1.0157 48.6743196.0205 1.4009 1.1689 2.5258999 2.5761 2.5092999 1.4014-.0166195 2.5225-1.168 2.5098-2.5693999-.2588-18.9808995-1.0225-48.6307988-1.0225-48.7137988zm18.3438-.1797c-.126-1.3955-1.3613-2.4262999-2.7549-2.3002999-1.4014.1264-2.4307 1.3628-2.3037 2.7582999.0059.083 2.7012 29.0028993 1.7793 45.2655989-.0801 1.4024.9961 2.6024999 2.3965 2.6786804 1.4004.0781196 2.6025-.9970804 2.6816-2.3998804.9365-16.5809996-1.792-45.9193988-1.7988-46.0023988z" fill="#ab4d13" data-name=" 228619416"/></svg>