<svg id="color" viewBox="0 0 320 320" xmlns="http://www.w3.org/2000/svg"><path id="_225876904" d="m137.2322 118.3025126s-30.8223-39.251999-24.7734-70.7040982c6.0547-31.4472992 42.875 31.6512992 42.875 31.6512992s32.2793-54.3124986 55.3535-38.534099c23.0732 15.7762996-8.9356 69.6278982-8.9356 69.6278982s60.8545-31.0741992 60.3526 6.9501998c-.4961 38.032199-83.9483 41.342799-83.9483 41.342799z" fill="#73c4b4" data-name=" 225876904"/><path id="_225874384" d="m98.7312 96.8357131c-32.0595 21.0282869-53.5693 141.6386964-32.5693 172.1591957 5.6562 8.2069998 16.2012 14.3006996 26.1406 15.0858996 36.9297 2.9315999 130.6231-76.0048981 132.8008-114.2870971 2.0156-35.3837991-96.7275-92.3925977-126.3721-72.9579982z" fill="#fd737b" data-name=" 225874384"/><path id="_226769456" d="m154.9412 137.1794121s8.9795 1.9649 7.581 8.3613998c-1.3916 6.3963998-9.1982 6.6473998-12.5546 3.1756999-3.3624-3.4785118-2.2999-12.2137997 4.9736-11.5370997zm-28.6397 97.4872975s8.9795 1.9649 7.5879 8.3613998c-1.3974 6.3964998-9.2051 6.6483998-12.5615 3.1698906-3.3555-3.4726905-2.2988-12.207 4.9736-11.5312903zm-43.1591-24.0008994s8.9794 1.9707 7.5878 8.3680998c-1.3974 6.3964998-9.1982 6.6406998-12.5605 3.1689999-3.3564-3.4716999-2.2998-12.2070997 4.9727-11.5370997zm42.4052-20.8779995s8.9795 1.9649 7.5821 8.3613998c-1.3916 6.3963998-9.1993 6.6415998-12.5547 3.1698999-3.3623-3.4726999-2.2998-12.2069997 4.9726-11.5312997zm46.4444-7.8192998s8.9795 1.9639 7.5879 8.3603998c-1.3975 6.3973998-9.1983 6.6483998-12.5606 3.1698999-3.3564-3.4726999-2.2998-12.2070997 4.9727-11.5302997zm-61.1446-35.3065991s8.9805 1.9638 7.5821 8.3670881c-1.3975 6.3965115-9.1983 6.6416115-12.5606 3.169-3.3564-3.4716883-2.3008-12.2060881 4.9785-11.5360881z" fill="#040406" data-name=" 226769456"/><g fill="#242947"><path d="m66.158 270.9949087c-.6367 0-1.2617-.3028-1.6494-.8662-15.4903-22.5039994-8.4268-91.2871977 7.9853-135.4433966.3848-1.0352 1.5342-1.5606 2.5723-1.1777 1.0351.3847 1.5625 1.5361 1.1777 2.5721999-16.0781 43.2538989-23.2676 110.2411879-8.4404 131.7812967.626.9092.3965 2.1552999-.5137 2.7811999-.3457.2383-.7412.3526-1.1318.3526zm158.9472-99.1952975c-.0361 0-.0722-.001-.1084-.003-1.1025-.0586112-1.9492-1-1.8906-2.1034999 1.2168-22.9237994-43.7724-56.8563986-81.834-69.6669982-1.0468-.3525-1.6103-1.4863-1.2578-2.5331999.3526-1.0478 1.4854-1.6113 2.5332-1.2578 40.1914 13.5272997 85.8809 48.6552988 84.5528 73.6708868-.0567 1.0664113-.9395 1.8936112-1.9952 1.8936112z"/><path d="m262.1052 119.2937126h-.0273c-1.1045-.0147126-1.9883-.9219-1.9736-2.0263999.082-6.2363126-1.6094-10.7773126-5.0274-13.4950997-4.9433-3.9315999-13.9638-4.4403999-26.0908-1.4678-1.0654.2588-2.1553-.3935-2.418-1.4668-.2627-1.0722.3936-2.1551999 1.4668-2.4178999 13.5625-3.3241999 23.4991-2.5761999 29.5323 2.2216999 4.4365 3.5282999 6.6367 9.140587 6.5371 16.6786996-.0147 1.0957-.9073 1.9736-1.9991 1.9736zm-106.7734-38.043999c-.3476 0-.6992-.0898-1.0195-.2802-.9502-.5645135-1.2617-1.792-.6983-2.7411999.9024-1.5176 22.3233-37.2128991 43.4375-41.8788989 5.4131-1.1973 10.3789-.2823 14.7647 2.7147999.9121.624 1.1455 1.8682.5224 2.7802999-.624.9111-1.8662 1.1444855-2.7802.5224-3.4854-2.3817999-7.292-3.0721999-11.6436-2.1122999-19.4414 4.2968999-40.6494 39.660199-40.8613 40.016599-.374.6289-1.0391.9785-1.7217.9785z"/></g></svg>