<svg id="Layer_1" viewBox="0 0 320 320" xmlns="http://www.w3.org/2000/svg" data-name="Layer 1"><path id="_226914160" d="m177.5477812 150.2298s18.0575995 22.8701 36.4149991 49.0528c18.3573995 26.1816 24.3788994 37.9194 24.3788994 37.9194l-9.0292998 1.5039s-11.1337997-17.7544-35.2138991-48.4522c-24.0731994-30.6958-34.3036991-46.0434-34.3036991-46.0434l17.7529996 6.0195z" fill="#f9d1c8" data-name=" 226914160"/><path id="_228330504" d="m95.2488832 40.8358s41.229499-34.606 105.0243973-24.6773c63.8017984 9.9317 97.2031975 39.7246 87.5761978 44.2393-9.6337998 4.5132-51.0145987 37.3154-56.1268986 64.25-5.1191999 26.9346-7.3759998 17.4541-21.5175798 20.6142-14.1475193 3.1602-54.7725183 26.1817-65.156318 48.9039-10.3827997 22.7207-18.6551995 16.5512-30.3934992 12.7905-11.7372997-3.7627-47.3964988 1.8056-59.5859985 17.9053-12.1893997 16.0996-22.7186994-4.9659-24.3788994-37.3165-1.6532849-32.3505 7.6747998-103.8242 64.5517984-146.708z" fill="#e89705" data-name=" 228330504"/><path id="_226581904" d="m224.66488 142.93c.7432 1.187 2.3173999 1.5454 3.5058999.7969s1.54-2.3184.7959-3.5068c-.1523-.2442-52.9862987-85.5518-133.2060966-101.8707l-.0068-.0034c-.7236-.146-1.4336.0303-1.9852999.4248l-.0264.0166-.0264.0205-.0205.0166-.0264.0196-.0927.0801-.0264.0161-.0205.0234c-.0664.061-.1328.126-.1924.1939l-.0264.0283c-.1992.2373-.3652.5146-.4648.8203l-.0059.0029v.0069c-.9101 2.3999-26.1913993 71.4316 38.472699 170.8369.7637 1.1767 2.3378999 1.5107 3.5126999.747 1.1816-.7636 1.5137-2.3383.75-3.5151-57.8329986-88.9077-42.404299-152.2681-38.6532991-164.2813 76.8417981 16.9712 127.5907968 98.8892 127.7430968 99.1265z" fill="#ab4d13" data-name=" 226581904"/><path id="_226911784" d="m223.29778 235.6966s9.4803998-9.0293 13.8426997-8.2773c4.3613999.7519 13.6895204 14.5976 20.0097995 28.1382 6.3202998 13.5424 6.6190998 35.811-10.0780997 46.7959-16.7040996 10.9843-40.929699-8.2759-43.6386989-18.9581-2.7089999-10.684 5.8690999-14.4467 16.3983996-1.205 10.5361997 13.2417 24.9824994 8.1264 25.2812994-1.9551.2988206-10.0816-11.2861794-25.1294-16.7030996-32.0503-5.4179999-6.9214-6.9179998-9.0293-5.1122999-12.4883z" fill="#d43436" data-name=" 226911784"/></svg>