<svg id="color" viewBox="0 0 320 320" xmlns="http://www.w3.org/2000/svg"><path id="_226419512" d="m284.0437 105.6387c84.8877 246.8115-333.10452 246.8115-248.2149221 0 35.9522221-104.5223 212.2578221-104.5223 248.2149221 0z" fill="#ffb2bc" data-name=" 226419512"/><path id="_225018552" d="m284.0437 105.6387c4.3037 12.5157 7.2539 24.3624 9.1025 35.6027-62.1748-54.0127-138.2910251-49.5938-138.2910251-49.5938l-14.5336996-7.8076s7.2660998-20.9933 50.8667247-48.7119c1.9902-1.2686 3.9033-2.4414 5.7451-3.5235 39.0879 9.4053 73.3643 34.07025 87.1104 74.0341z" fill="#fd737b" data-name=" 225018552"/><path id="_225018192" d="m242.0573 267.9873c-41.2002 26.2627-98.6196248 29.7725-144.1601237 10.5127-.1485-10.3261.1123-22.4492.9775-36.6728 4.8456999-79.663 34.9893237-137.2577 34.9893237-137.2577l12.9183751-.541s18.8384249 16.1484 62.9771249 94.2021c16.5098 29.1933 26.3906 52.287 32.2978 69.7567z" fill="#74c4eb" data-name=" 225018192"/><path id="_225018096" d="m24.4557782 170.4865c-.314-19.2989 3.1386999-40.8975 11.3778997-64.8478 5.5683999-16.1942 14.5126996-29.87596 25.7773993-41.05265 36.7816991-.625 69.2943982 23.55765 69.2943982 23.55765l.5361 14.8027s-19.9154995 1.6162-61.9022984 29.876c-19.3139995 12.999-34.4076991 26.6748-45.0834989 37.6641z" fill="#fd737b" data-name=" 225018096"/><g fill="#242947"><path d="m159.9274748 292.753c-14.3276996 0-28.6982993-1.8067-42.5146989-5.461-37.3212991-9.873-66.4379983-31.9785-81.9857758-62.2461-.5049221-.9824-.1177221-2.1884.8646779-2.6933.982-.5049 2.1874999-.1162 2.6928999.8652 22.8832994 44.5459 72.1195982 65.5254 120.651797 65.5274 21.5801252.0009 43.0166252-4.1455 61.9434252-12.2129 65.0557-27.7285 87.7002-91.37 60.5723-170.2431-.3594-1.0439.1963-2.1826 1.2412-2.542 1.0449-.3595 2.1826.1963 2.542 1.2412 14.8847 43.2793 15.4648 81.3809 1.7226 113.248-11.9189 27.6377-34.2256 49.0683-64.5097 61.9756-19.4991 8.3115-41.3057 12.54-63.2207252 12.541z"/><path d="m24.4508782 172.4865c-.5024 0-1.0054-.1885-1.394-.5655-.792-.7705-.8101-2.0361-.0401-2.8281 13.7504997-14.1474 29.0258993-26.9082 45.4008989-37.9297 41.9384989-28.2275 62.0233984-30.1425 62.8578984-30.2099 1.0996-.0869 2.0658999.7304 2.1552999 1.831.0888 1.0996-.728 2.0624-1.8257 2.1553-.1958.0166-20.0868995 2.0361-60.9540985 29.542-16.1459996 10.8671-31.2074992 23.4501-44.766077 37.3984-.3921218.4043-.9131218.6065-1.4341218.6065z"/><path d="m209.7673 200.2237c-.6973 0-1.375-.3652-1.7432-1.0155-43.4619-76.8585-62.3510249-93.5088-62.5371-93.668-.8383248-.7188-.9355248-1.9815-.2168249-2.8203.7193-.8369 1.9814999-.9356 2.8202999-.2168.7798.6689 19.6094249 17.2685 63.4161249 94.7363.5429.9609.205 2.1816-.7569 2.7256-.3105.1757-.6494.2587-.9824.2587z"/></g><path id="_226414664" d="m161.8591 88.549c15.3057 44.4922-60.0508238 44.4922-44.7471 0 6.4824757-18.84185 38.2651749-18.84185 44.7471 0z" fill="#f7d749" data-name=" 226414664"/><path d="m161.8532 90.5499c-.83 0-1.6059252-.5214-1.8911252-1.3505-3.2460748-9.43466-13.0629997-12.78235-20.4833995-12.78235-7.4198998.001-17.2357996 3.34869-20.4813995 12.78235-.3599 1.0449-1.499 1.5996-2.5414999 1.2412-1.0445-.3594-1.6001-1.4981-1.2407-2.542 3.2347999-9.40435 12.7586997-15.480547 24.2635994-15.481547 11.5053997 0 21.0303247 6.077197 24.2661247 15.481547.3594 1.0439-.1962 2.1826-1.2412 2.542-.2148.0741-.4345.1093-.6504.1093z" fill="#242947"/></svg>