<svg id="Layer_1" viewBox="0 0 320 320" xmlns="http://www.w3.org/2000/svg" data-name="Layer 1"><path id="_227804184" d="m271.6002788 188.0834177s-14.9808996-95.5566976-90.8529977-118.5674177c-75.8710981-23.0175787-125.9765968 23.7578201-134.4330966 73.4218189-8.4564998 49.6601811-1.9818999 71.5302982-1.9818999 71.5302982s156.907196 36.9130991 227.2679943-26.3846993z" fill="#d43436" data-name=" 227804184"/><path id="_226911568" d="m262.916179 156.7943185c-1.8803-5.1191999-4.1293999-10.6093997-6.7997998-16.2694996-10.3534997 1.6601-22.7840994 2.0145999-36.6112991-.628-5.3710801-1.0254-9.6503998-1.872-13.4940801-2.6356999-33.4209187-6.6317998-38.4419186-7.6308998-60.814 6.7059998-14.8686177 9.5263998-27.5991173 6.9941998-49.1265168 2.7148811-5.8568999-1.168-12.2821997-2.4423811-18.8412995-3.5575811-13.5438997-2.3046999-23.2464994-2.3242999-30.7772992-.9366-.0464.2451811-.0962.4981-.1377.75-1.1235 6.5927998-1.9799999 12.6874997-2.6254999 18.3173995 6.3930998-2.6688999 15.1933996-3.7440999 30.6123155-1.122 7.1703836 1.2216 13.0360834 2.3895999 18.3822833 3.4520999 25.8325993 5.1386816 41.109399 8.1728998 61.8481984-5.1113184 16.5062996-10.5761812 20.6327995-9.7597813 48.0917988-4.3095814 4.2207195.8369 8.9227998 1.7725 13.6249997 2.6689999 16.3437198 3.1209999 31.0760992 2.6229999 43.3104989.5839 1.1367-.1855 2.2568999-.3984 3.3573999-.623zm-22.5096994-43.0985989c-3.3456999-4.6240999-7.0253998-9.1513998-11.0756997-13.4737196-5.4438999 3.2461199-10.5492997 5.418-15.6479996 6.4268198-8.1893998 1.6133-17.0096996.292-28.0770993-4.3622999-27.3300993-11.4989997-40.991199-1.7852-56.2294986 9.0487998-1.6367 1.1621-3.2851824 2.3339999-4.3319999 3.0546803-5.9902998 4.1162195-11.9506997 5.8691195-19.0497995 5.7695195-7.9579998-.1162-17.6699996-2.4569999-30.3134992-6.4071998-6.0536998-1.8887-12.0565997-2.6425999-17.7963996-2.6493999-3.2992999 5.7030803-5.9916998 11.6786997-8.0414842 17.8065996 6.4364842-.9629 13.580084-.8965192 20.7387839 1.3408 14.0433996 4.3886808 25.1605994 6.9912998 35.1420991 7.1376808 10.8368997.152419 19.9305995-2.5233809 29.076117-8.8065808 1.9765822-1.3584192 3.291-2.2948999 4.5761821-3.2069999 11.0938179-7.8876998 21.0390995-14.9550996 39.535599-7.1738998 14.3920996 6.0517998 26.3774993 7.6679998 38.118699 5.3515999 7.9647998-1.5703 15.5053996-4.9061999 23.3759994-9.8563998z" fill="#f9d1c8" data-name=" 226911568"/><path id="_224017816" d="m117.5763827 39.8255215s-6.3017998-6.9569998-4.2885999-11.1991997c2.0132172-4.2499999 14.6254996 5.3271999 14.6254996 5.3271999s-.2998-13.8193997 5.7631999-14.4296996c6.0648998-.6045 9.6996998 10.197178 9.6996998 10.197178s8.2289998-8.733378 12.6439997-5.6200781c4.4150999 3.1113999-.3471 12.4384997-.3471 12.4384997s16.6976996-6.5321998 19.7549183-.9463c3.0604811 5.5878784-6.3833186 10.3241997-6.3833186 10.3241997s7.0189998-1.2382 9.9286997 6.0585998c2.9096189 7.2958998-9.3364998 5.3241999-9.3364998 5.3241999s10.9414997 8.1064998 8.3769998 13.5234997c-2.5658811 5.4110999-15.9286996.8037-15.9286996.8037s4.5126999 9.2352998.9297 13.5839997c-3.5839999 4.3485999-14.5400996-2.9950999-14.5400996-2.9950999s-2.5428999 10.6092997-7.8026998 11.1014997c-5.2562999.4942-7.9350821-8.5585998-7.9350821-8.5585998s-8.1626175 8.2656998-15.5551173 2.8788796c-7.3925998-5.3885796-1.1787-12.2557794-1.1787-12.2557794s-11.4609997-.3418-13.9453996-7.6523998c-2.4847831-7.3163998 8.0146998-9.9178997 8.0146998-9.9178997s-12.1776997-3.631921-12.3866997-11.5390997c-.2071-7.9140998 19.8905995-6.4472998 19.8905995-6.4472998z" fill="#e66f25" data-name=" 224017816"/><path id="_227842568" d="m138.5626821 186.8421178s25.8378993-3.5379999 74.7675981-10.2508997c48.9307198-6.7187998 62.1884984-16.2392996 71.1498982 16.2196996 8.9613998 32.4647992 22.6542994 66.0458983-38.674299 88.4921978-61.3290985 22.4403994-173.9643956 23.7020994-197.080095 11.5458846-23.1141994-12.1562846-23.0673994-54.4804835-19.1932995-79.2245829 3.8749999-24.7499994 43.6683989-12.6347997 109.0282972-26.7822993h.0019z" fill="#e66f25" data-name=" 227842568"/><path id="_228614232" d="m252.2951793 185.515c-.2188-1.3886822-1.5215-2.3310821-2.9072999-2.1112821-1.3862.2187-2.3319999 1.5195-2.1112999 2.9071999l7.6464998 47.8153988c.2207 1.3866834 1.5234 2.3300999 2.9076999 2.1112999 1.3862209-.2197 2.3319999-1.5214 2.1127999-2.9081999zm-197.466395 92.542c-1.3911.1992155-2.3534999 1.4931154-2.1507843 2.8877154.2020843 1.3877 1.4950843 2.3505999 2.8861842 2.1512846.4282-.0594847 148.4169963-21.7362841 218.0160945-26.178684 1.4024-.0859 2.4682999-1.2939 2.3817999-2.695316-.0878-1.4003839-1.2978-2.4686839-2.6986999-2.3827839-69.8515982 4.4550999-218.0082945 26.1581993-218.4345945 26.2177839zm3.5302999-68.9003828c-.209-1.3877-1.5073-2.3506172-2.8998999-2.1376999-1.3906.2050827-2.3495999 1.5068-2.1405999 2.8944999l6.8197998 44.2890989c.2095 1.3877 1.5073 2.3505999 2.8998999 2.1376999 1.3906-.2061 2.3500999-1.5068 2.1405999-2.8944999zm29.8276992-.292c-.045-1.4014-1.2177834-2.5038999-2.6206999-2.4569999-1.4008.04-2.5028999 1.2148-2.4593999 2.6161999l1.3642 41.9921828c.043 1.4004161 1.2178 2.5029161 2.6191999 2.4629161 1.4023-.0459161 2.5043999-1.2217 2.4609166-2.6220999l-1.3642166-41.9921989zm24.7972994-1.2148c-.2905-1.375-1.6416-2.2509999-3.0175999-1.959-1.3744829.2851-2.2523999 1.6396-1.9619 3.0135999l8.9994998 42.1386989c.2901 1.374 1.6416 2.2509999 3.0175999 1.9648838 1.374-.292 2.2519999-1.6464838 1.9619-3.0204838l-8.9994998-42.1376989zm32.8169172-8.6376998c-.152318-1.3946-1.410618-2.4033999-2.806618-2.2509999-1.3975.1523-2.4052999 1.414-2.2519999 2.8085999l5.1846179 45.5634988c.1527819 1.4013 1.4110819 2.4032999 2.8065819 2.2508999 1.3975-.1523 2.4052999-1.4072 2.2509999-2.8016999zm25.7348813-3.3925999c-.2525-1.3819-1.5767-2.2978999-2.9574999-2.0448999-1.3793814.2519-2.2939999 1.58-2.0419999 2.9608999l8.5809998 46.6991988c.2525 1.3809 1.5772 2.2968999 2.9579999 2.0448999 1.3789-.2529 2.2939999-1.58 2.0414999-2.9540999zm29.3246993-3.8505999c-.1425806-1.3945-1.3925806-2.4101999-2.7880999-2.2714999-1.396.1465-2.4135999 1.3945-2.2704806 2.7890999l4.6268806 45.1053989c.1431194 1.3946 1.3912 2.4101999 2.7891194 2.2646999 1.3954805-.1397 2.4110804-1.3877 2.2704804-2.7890999zm25.9872993-.4521c-.3071-1.3672-1.668-2.2236999-3.0370999-1.919-1.3697.3057-2.2294999 1.667-1.9224 3.0351823l9.6283998 42.291c.3072202 1.3672165 1.668 2.2304165 3.0370999 1.9179165 1.3697-.3046 2.2294999-1.666 1.9224-3.0340999z" fill="#ab4d13" data-name=" 228614232"/></svg>