<svg id="color" viewBox="0 0 320 320" xmlns="http://www.w3.org/2000/svg"><path id="_230203336" d="m53.624 101.036813s-.6811088-28.2275993 24.5858906-28.3789993c25.2656994-.1484 24.3574994 28.0761862 24.3574994 28.0761862l-48.94339.302813zm162.3730871-3.1855999s-6.0712998-15.4794996 13.3534997-14.5713996c19.4242995.9151865 33.5345992-1.6678135 32.6249992 18.5166995-.9082 20.1855995-40.211899 4.4032999-45.9784988-3.9452999z" fill="#fd737b" data-name=" 230203336"/><path id="_226415528" d="m54.6093912 97.9215131c-29.0722993 6.9832998-30.7665992 22.4628994-29.6357993 65.2538984 1.1289 42.7918989-8.4677998 86.1952978 20.8847995 104.7088974 26.5057993 16.7158996 201.5556949 16.7158996 228.0596086 0 29.3543849-18.5135995 19.7567851-61.9169984 20.8871851-104.7088974 1.1303-42.7909989-.565-58.2705985-29.6381851-65.2538984-6.401414-1.5361-30.5508134-2.5506999-60.3867126-3.0428999 1.2578-9.7948998 3.7938999-30.5878992 2.9208999-40.415099-2.0175999-22.6903994-93.6064976-22.6903994-95.6240976 0-.8745 9.8271998 1.6602 30.6201992 2.9199999 40.415099-29.8378992.4922-53.9863986 1.5068-60.3876985 3.0428999z" fill="#ffb2bc" data-name=" 226415528"/><path id="_226423640" d="m135.1141891 90.527c-6.9056998-1.5907867-6.6766998-13.8817863-6.2210998-25.4188861.7329107-18.6415995 61.2582985-18.6415995 61.9925984 0 .4541 11.5370997.6826 23.8280994-6.2225998 25.4188861-4.7475999 1.0947133-44.7997989 1.0947133-49.5488987 0z" fill="#f7d749" data-name=" 226423640"/><path id="_226420376" d="m150.0585888 120.9762125s51.0692987-8.5087998 72.1752982 32.3437875c21.1088995 40.8593107 6.8099998 90.9042094-41.8754989 102.1386091-48.6855988 11.2342997-93.2831976-22.4687994-92.2636977-58.8964985 1.0215-36.4335991 19.4071995-71.8358982 61.9638984-75.5858981z" fill="#74c4eb" data-name=" 226420376"/><path id="_226424888" d="m153.8817887 147.4068119s31.2109992-5.1980999 44.1103989 19.7685995c12.9012997 24.9686994 4.1630999 55.5526986-25.5927994 62.4198984-29.7548992 6.8671998-57.0097986-13.7333997-56.3866986-35.9960991.6235-22.2616994 11.8593997-43.8993989 37.869099-46.1923988z" fill="#fd737b" data-name=" 226424888"/><path id="_226417808" d="m243.6151864 115.0055127s19.3490995-1.4433 24.7358994-.6837c5.3880999.7609 4.0985999 8.5743998 3.8695999 15.3252996-.2285 6.7568877-4.6278999 5.9199999-11.2294997 6.6796998-6.6005998.7608-18.5902995 1.0635-19.4242995-1.8232-.836-2.8788999-1.3657-10.4667997-1.5171-13.2753997s.227-5.3144999 3.5653999-6.2226998z" fill="#f7d749" data-name=" 226417808"/><g fill="#242947"><path d="m156.873 282.5543084c-12.104 0-24.1464108-.2432-35.6279105-.7354-1.1035-.0469085-1.96-.9805-1.9126-2.0839999.0469-1.1035.9917-1.9287 2.0835105-1.9121 58.643588 2.5107999 135.2650861-1.6484 151.4516857-11.6338086.9414-.581 2.1733143-.2880911 2.7523999.6524088.5801.9394.2881 2.1717999-.6519 2.7518999-13.8167997 8.5234998-66.4559983 12.9609997-118.0951856 12.9609997zm137.9330851-117.372097c-.018 0-.0356 0-.0537-.001-1.104-.0293-1.9756-.9473-1.9467-2.0516999 1.1816-44.7850989-1.4253-56.8476986-28.1059993-63.2567984-5.6820999-1.3633-27.5341993-2.4530999-59.9525985-2.9882999-1.1045-.0186-1.9848999-.9287-1.9664-2.0331999.0186-1.1035.9439-2.0116999 2.0327999-1.9668 19.2147995.3184 52.6678987 1.1425868 60.8202985 3.0995868 31.4135992 7.545 32.2572992 26.0694125 31.1708992 67.2509115-.0288 1.086-.9185 1.9473-1.9985999 1.9473zm-269.8329932 0c-1.0962 0-1.9896999-.8838-1.9994999-1.9823999-.3545-40.2538115.8218-59.9266985 31.1684992-67.2158115 8.1532998-1.957 41.6063989-2.7811868 60.8217985-3.0995868 1.0908-.0517 2.0141104.8633 2.0326999 1.9668.0185 1.1045-.8618 2.0145999-1.9663 2.0331999-32.4189992.5352-54.2714986 1.625-59.9540985 2.9882999-27.5029993 6.6064998-28.4560993 23.1570994-28.1025993 63.2918984.0098 1.1045-.8779 2.0077999-1.9823999 2.0175999h-.0181z"/><path d="m180.356388 257.4586091c-.9101 0-1.733388-.625-1.9467-1.5508-.2486-1.0762.4228-2.1493999 1.499-2.3984999 20.2054995-4.6620999 35.7523991-16.7743996 43.776312-34.1063991 9.0073867-19.4560995 7.8007867-43.8173989-3.228-65.16491-20.1748125-39.0517873-69.5732113-31.3701875-70.0708113-31.2891875-1.0879.1817-2.1190999-.5556-2.3002999-1.6454-.1806-1.0889.5547-2.1181999 1.6441112-2.2997999.5355888-.0879 13.3011884-2.1513999 28.881288.8612 20.7797995 4.0186999 36.4784991 15.2695996 45.3993989 32.5371874 11.5913131 22.4374112 12.8266997 48.1122105 3.3041999 68.68161-8.5541998 18.4774995-25.0707994 31.3768992-46.5067988 36.3241991-.1514.0341909-.3027.0508-.4517.0508z"/><path d="m160.7294885 232.9244097c-11.8945997 0-23.4819994-3.9444097-32.5043992-11.3300997-9.3173998-7.6269998-14.4970893-17.8515995-14.2113996-28.0507993.3999-14.3251996 4.9847999-26.9393993 12.9105997-35.5193991.7495-.8125 2.0147107-.8613 2.8261999-.1113.8115107.749.8618 2.0145999.1123 2.8259999-7.2690998 7.8681885-11.4779997 19.5585995-11.8510997 32.9159992-.2505 8.9531893 4.3954999 18.0078995 12.7470997 24.8437994 11.1307997 9.1122998 26.5302993 12.5321997 41.190899 9.1474998 1.0757-.2422 2.1498999.4228 2.3983999 1.499.2486 1.0771-.4228 2.1503999-1.499 2.3993999-4.0160882.9268-8.0858998 1.3799-12.1195997 1.3799z"/><path d="m128.8944893 67.1081139c-.0268 0-.0532-.001-.0801-.002-1.1035-.043-1.9633-.9726-1.9199-2.0762999.4321-10.9851997 16.8808996-15.9021996 32.9911992-15.9031996h.003c16.1123115 0 32.5628992 4.9169999 32.9955992 15.9023857.0434 1.1045139-.816 2.0341139-1.92 2.0771139-1.1171.0254-2.0335999-.8164-2.0770999-1.9189-.312-7.9179998-14.8241878-12.0605997-28.9984993-12.0605997h-.003c-14.1722996.001-28.6830993 4.1435999-28.9940993 12.0595997-.0425 1.0771-.9287 1.9219-1.9970999 1.9219z"/></g><path id="_225873304" d="m158.7465885 180.709511s3.7972999-17.559511 18.1957995-13.6297997c14.3988996 3.9227999 5.8749999 36.1756991-9.6747998 46.0829988-15.5517996 9.9012898-32.6659992-16.8320996-32.3500992-30.8290992.3169-13.9980996 16.9881996-17.0644996 23.8290994-1.6241z" fill="#ffb2bc" data-name=" 225873304"/></svg>