<svg id="color" viewBox="0 0 320 320" xmlns="http://www.w3.org/2000/svg"><path id="_223827648" d="m87.7152 137.1025c-48.9961 195.2559-36.08 202.7119 108.5157 62.6514-53.125-37.3145-49.6397-35.2998-108.5157-62.6514z" fill="#ffdaba" data-name=" 223827648"/><g fill="#242947"><path d="m125.1518 255.3603c-.959 0-1.8057-.6919-1.9707-1.6684-4.9414-29.3716-16.9268-61.5347-17.0479-61.856-.3877-1.0347.1367-2.187 1.1709-2.5747 1.0342-.3887 2.1865.1362 2.5752 1.1704.1211.3252 12.2412 32.8496 17.2471 62.5962.1826 1.0894-.5518 2.1211-1.6407 2.3042-.1123.0191-.2246.0283-.3339.0283z"/><path d="m105.8871 262.7344c-.8301 0-1.6045-.5201-1.8906-1.3482-6.4033-18.5601-17.334-53.5913-17.4434-53.9434-.3291-1.0542.2598-2.1757 1.3135-2.5043 1.0518-.3296 2.1758.2587 2.5049 1.3139.1094.3511 11.0225 35.3257 17.4062 53.8291.3604 1.0445-.1943 2.1826-1.2382 2.543-.2159.0747-.4366.1099-.6524.1099z"/><path d="m84.2484 282.0898c-.872 0-1.6738-.5747-1.9228-1.4551-5.209-18.3745-9.3359-40.5322-9.377-40.7539-.2011-1.0859.5166-2.1294 1.6026-2.3305 1.0908-.2076 2.1299.5166 2.331 1.602.0401.2197 4.1348 22.1992 9.291 40.3916.3018 1.0625-.3154 2.1685-1.3779 2.4697-.1826.0518-.3662.0762-.5469.0762z"/><path d="m82.6518 215.5024c-.8321 0-1.6084-.5229-1.8926-1.354-.3574-1.0454.2012-2.1821 1.2461-2.539 18.0215-6.1563 39.1679-15.5323 39.3789-15.6265 1.0107-.4483 2.1914.0058 2.6396 1.0151.4493 1.0098-.0058 2.1914-1.0146 2.6402-.2129.0947-21.5176 9.5415-39.711 15.7563-.2138.0732-.4326.1079-.6464.1079z"/><path d="m88.5775 239.3945c-.8681 0-1.6679-.5703-1.9209-1.4468-.3056-1.061.3067-2.1694 1.3682-2.4756 18.5811-5.3554 50.7949-19.1157 51.1182-19.2539 1.0156-.4345 2.1904.0357 2.626 1.0513.4345 1.0156-.0362 2.1909-1.0518 2.6255-.3252.1396-32.7656 13.9966-51.585 19.4209-.1845.0532-.3711.0786-.5547.0786z"/><path d="m73.8266 272.2886c-.8233 0-1.5948-.5123-1.8848-1.3326-.3691-1.041.1758-2.1841 1.2168-2.5532 20.6572-7.3193 40.0811-20.5478 40.2744-20.6807.9121-.624 2.1563-.3906 2.7803.5196.625.9111.3926 2.1557-.5186 2.7802-.1982.1353-20.0371 13.6524-41.2002 21.1514-.2207.0781-.4463.1153-.6679.1153z"/></g><path id="_223780992" d="m90.4906 113.2334s1.0313-62.1958 44.9766-82.624c43.9443-20.4278 117.959 11.083 122.3262 77.601 4.3613 66.52-46.3223 77.5991-46.3223 77.5991s8.291 26.6231-9.4561 37.917c-17.7402 11.292-31.9443-18.7465-31.9443-18.7465s-8.1289 11.9858-21.0381 5.4448c-12.9023-6.5401-16.9736-28.9102-16.9736-28.9102s-15.9815 3.5137-29.5352-4.0083c-13.5527-7.5219-10.2158-25.9165-10.2158-25.9165s-16.542 5.0098-24.0859-4.5058c-7.5498-9.5142-3.4072-25.6231 22.2685-33.8506z" fill="#ffb2bc" data-name=" 223780992"/><path d="m193.9232 228.2685c-1.4873 0-2.9843-.2168-4.4873-.6513-9.6201-2.7798-16.8056-13.8433-19.7314-19.0591-4.1689 4.2422-12.0146 8.4917-21.5693 3.6509-11.461-5.8096-16.2784-22.6206-17.625-28.3941-4.8389.709-17.5948 1.7427-28.9502-4.56-11.3653-6.3072-11.9268-19.2237-11.541-25.064-5.3946 1.0527-16.9932 2.1558-23.3565-5.8638-3.6201-4.5615-4.7217-10.3852-3.0215-15.9775 2.7373-9.0093 12.0606-16.4746 26.253-21.021 1.0527-.3379 2.1777.2427 2.5146 1.2944.3369 1.0523-.2422 2.1782-1.2939 2.5152-17.4112 5.5776-22.2891 13.9062-23.6465 18.3745-1.3311 4.3808-.5049 8.7588 2.3271 12.3281 6.6299 8.3545 21.793 3.8813 21.9453 3.835.666-.2017 1.3916-.0425 1.9112.4213.5205.4639.7617 1.1651.6367 1.8506-.0303.167-2.9024 17.0865 9.2129 23.8101 12.7031 7.0508 27.9834 3.8359 28.1357 3.8032.5283-.1147 1.083-.0107 1.5361.2901.4502.3002.7618.7714.8594 1.3041.0391.2144 4.0547 21.4756 15.9112 27.4859 11.2099 5.6767 18.1933-4.3545 18.4863-4.7847.4023-.5928 1.084-.9243 1.8086-.8701.7148.0552 1.3467.4898 1.6533 1.1382.0781.165 7.9561 16.5644 18.6602 19.6518 3.5527 1.0245 6.955.4561 10.4023-1.7373.9297-.5922 2.1689-.3178 2.7607.6138.5928.9321.3184 2.168-.6142 2.7612-2.9863 1.9004-6.0596 2.8545-9.1778 2.8545z" fill="#242947"/></svg>