<svg id="color" viewBox="0 0 320 320" xmlns="http://www.w3.org/2000/svg"><path id="_225023304" d="m179.765888 219.7657238s13.6708997 23.6737994 24.1561994 47.9130988c22.3993994 51.7782987 71.0126982 23.7050994 37.3730991-21.5790995-15.7480996-21.1991995-29.4159993-44.8759989-29.4159993-44.8759989-27.4960993-21.5927242-37.0615991-16.0682996-32.1132992 18.5419995z" fill="#ffdaba" data-name=" 225023304"/><path id="_223833792" d="m165.1935884 258.1515228c-18.5790995 12.0008997-52.4462987-47.2070988-89.8944977-118.6963228-51.8632987-99.0078 59.4530984-163.2744 119.2636969-68.8565 43.1874989 68.1748 77.5312124 127.1114243 57.8456985 137.1983-32.1113992 16.459-56.9052986 30.7724233-87.2148978 50.3545228z" fill="#fd737b" data-name=" 223833792"/><path id="_225024264" d="m165.1935884 258.1515228c-13.1073997 8.4706998-33.8251991-18.5126995-58.0409985-60.2421985l1.1084102 1.9072c52.9853885-24.6073994 96.373-51.4673243 122.8354867-69.1934243 22.8480994 40.228625 34.8426991 70.2403243 21.3119995 77.1739-32.1113992 16.459-56.9052986 30.7724233-87.2148978 50.3545228z" fill="#74c4eb" data-name=" 225024264"/><path id="_225022632" d="m108.261 199.8126243c-10.4307099-17.8593995-21.5298096-38.535199-32.9619094-60.3594243-.3945-.7534-.7505-1.4975-1.1275-2.248 23.3896994-12.8028 71.3814093-40.1924 116.2309971-72.7661 1.4092 1.9819 2.8026999 4.0146 4.1601999 6.1577 13.5028997 21.3154 26.1415993 41.7275 36.5336991 60.0254-26.4624867 17.7255-69.8500982 44.5869249-122.8354867 69.1904243z" fill="#f7d749" data-name=" 225022632"/><path d="m108.2624898 201.8097242c-.7544 0-1.4771-.4287242-1.8154898-1.1582-.4653101-1.001-.0302101-2.1905243.9716898-2.6562999 52.5107987-24.3798994 95.6347976-50.9980243 122.5649969-69.0347243.9189-.6152 2.1600999-.3686 2.7743999.5489.6147.9174.3691 2.1596-.5489 2.7744-27.0477993 18.1162-70.3617982 44.8511249-123.1058969 69.3403242-.2725.126-.5591.1856-.8408.1856zm-34.0888991-62.6040242c-.7124 0-1.4014-.3814-1.7627-1.0523-.5238907-.9722-.1602-2.185.8125-2.709 19.2689995-10.3789 69.1449983-38.2309 115.9956093-72.6191.8910877-.6533 2.1415877-.4619 2.7958877.4287.6538.8906.4614 2.1421-.4287 2.7959-47.0536988 34.5371-97.1229975 62.4976-116.4662971 72.916-.3013.1626-.6265.2398-.9463.2398z" fill="#242947"/></svg>