<svg id="Layer_1" viewBox="0 0 320 320" xmlns="http://www.w3.org/2000/svg" data-name="Layer 1"><path id="_31808880" d="m276.4715 112.1735197s9.208 47.6249988 13.0185 83.5028979c3.8115 35.8778991 8.2529 45.4052989-23.4951 55.8818986-31.7549 10.4764997-130.8155 18.4159995-178.441 29.8485992-47.6275 11.4257997-62.232 5.7167999-65.0899-8.8896998-2.8579-14.6053996-17.1454-56.8368986 7.3033-68.9003983 24.4483-12.0633997 113.9848-45.7235988 156.8506-66.0428983 42.8614-20.3183995 89.8536-25.4003994 89.8536-25.4003994z" fill="#783004" data-name=" 31808880"/><path id="_31807272" d="m253.9246 105.5114198s7.6221 41.9120989 14.2871 78.746098c6.6728 36.8270991 5.3984 40.318299-29.2051 51.1141987-34.6094 10.7949997-125.419 21.2714995-163.2022 30.4794992-37.7832 9.2089998-55.8814 10.1650997-60.6436-3.8104999-4.7632-13.9687996-11.4326-40.319399-6.3515-51.4325987 5.08-11.1142997 18.0996-27.6259993 54.2944-59.0556985 36.1963-31.4355992 72.7095-69.5370982 86.6802-76.8397981 13.9702-7.3037998 44.7676 3.1756999 67.626 11.4315997 22.8643 8.2558998 36.5147 19.3671995 36.5147 19.3671995z" fill="#e89705" data-name=" 31807272"/><path id="_228776536" d="m262.3562 151.9684187c1.8926 10.4198997 3.917 21.5663995 5.8555 32.2821992 6.666 36.8339991 5.3984 40.325199-29.2119 51.1210987-34.6094 10.7949997-125.4171 21.2714995-163.2002 30.4794992-37.7833 9.2089998-55.88 10.1581997-60.6437-3.8104999-4.7617-13.9687996-11.4306-40.319399-6.3501-51.4325987.1646-.3653.3369-.7305.5196-1.1026 23.0009-5.2977999 65.2656-9.7792998 154.4233-28.1093993 63.0353-12.9598997 88.4161-23.3701179 98.6075-29.4247993v-.0029z" fill="#ab4d13" data-name=" 228776536"/><path id="_207866528" d="m186.6179 47.8805213s11.9034-12.5409997 26.8282-6.1913998c14.9248 6.3505998 16.5117 23.8144994 16.5117 23.8144994s7.9336-7.4618998 16.9824-2.5429999c9.0488 4.9198999 8.2598 18.5761995 8.2598 18.5761995s9.208-7.9394998 21.5898-.3184c12.3819 7.6210998 5.8692 19.5253995 5.8692 19.5253995s26.5166 2.70218 30.0087 19.2108995c3.4922 16.5107996-20.4814 17.7822805-20.4814 17.7822805s6.9844 16.5088186-14.7656 19.3662185c-21.7432 2.8553999-28.5752-12.3818997-28.5752-12.3818997s-11.585 2.6953999-22.5391-5.8758999c-10.9551-8.5702998-12.3818-24.2890994-12.3818-24.2890994s-11.5918 8.7304998-25.4014 1.7461c-13.8164-6.9844196-14.1279-23.0204994-14.1279-23.0204994s-19.6886 1.2744-29.214-7.9345998c-9.5254-9.2079998-1.2695-25.5595994-1.2695-25.5595994s-5.0811-14.1278996 5.0801-22.7020994c10.1597-8.5751998 27.3057-5.0829999 37.626 10.7948997z" fill="#783004" data-name=" 207866528"/><g fill="#f9d1c8"><path id="_228331032" d="m154.2287 167.4137183s-33.9741 10.3241997-49.6904-7.9335998c-15.7164-18.2577995 2.6987-22.8612994 2.6987-22.8612994s-1.2694-15.5585996 7.3027-20.4784995c8.5733-4.9198999 13.0181-1.9063196 13.0181-1.9063196s8.0962-20.7997799 20.9565-18.416c12.8579 2.38282 8.7315 6.1944199 5.8736 10.4766198-2.8579 4.2889999-1.2701 8.7333802-1.2701 8.7333802s8.0948 2.0615195 10.9532 7.459c2.8585 5.3974193-1.7461 10.4795191-1.7461 10.4795191s12.2227.7939 15.0811 9.8426998c2.8584 9.0488998-5.0791 20.9599995-23.1773 24.6044994z" data-name=" 228331032"/><path id="_228041512" d="m35.2009 223.4674169c-1.3956.1534-2.4033 1.4141-2.25 2.8085831.1523 1.4014167 1.4101 2.4033167 2.8081 2.251.1274-.0136833 44.4966-5.0858831 108.4497-16.8573829 64.0186-11.7841997 90.4229-20.3749995 90.503-20.4013995 1.334-.4316 2.0644-1.8662177 1.6328-3.2069999-.4385-1.334-1.8721-2.0644999-3.207-1.6328-.0791.0263-26.2246 8.5311998-89.8449 20.2421995-63.6855 11.7245997-107.9638 16.7840996-108.0917 16.7967996zm19.3779 16.1933996c-1.3955.1523-2.4082 1.4004-2.2602 2.8017999.1493 1.3935 1.4023 2.4100999 2.7983 2.2567999.1992-.0195 68.9951-7.3095998 117.6778-16.5380996 48.6709-9.2284998 71.1514-14.6123167 71.2178-14.6259996 1.374-.3115 2.2304-1.6797 1.9121-3.0467999-.3125-1.3682-1.6729-2.2246999-3.0469-1.9122-.0664.0126828-22.54 5.3974999-71.0185 14.5859996-48.4743 9.1884998-117.0826 16.4579996-117.2804 16.4784996z" data-name=" 228041512"/></g></svg>