<svg id="color" viewBox="0 0 320 320" xmlns="http://www.w3.org/2000/svg"><path id="_226416584" d="m162.509 79.3906s63.6045-6.6191 77.3125 53.398c13.7012 60.018-18.5586 99.7387-63.3408 107.1098-44.7754 7.3711-99.9287-30.2803-98.7568-73.2446 1.166-42.9644 15.9433-85.9732 84.7851-87.2632z" fill="#e7bb24" data-name=" 226416584"/><path id="_225872032" d="m214.6155 243.8838s16.4384 20.9355 15.1572 29.809c-1.2754 8.8736-11.6982 2.8199-21.9082-17.1254-10.21-19.9444-1.0498-21.5596 6.751-12.6836zm-59.8037-183.8633s-3.7754-26.3545 1.7714-33.3965c5.5459-7.0439 11.543 3.4062 10.4161 25.7856-1.128 22.3785-9.875 19.1978-12.1875 7.6109zm0 199.958s-3.7754 26.3559 1.7714 33.3984c5.5459 7.042 11.543-3.4077 10.4161-25.7861-1.128-22.3799-9.875-19.1973-12.1875-7.6123zm50.7343-189.3311s9.9063-24.7099 18.2295-28.0351c8.3291-3.3291 8.2969 8.7202-3.872 27.5361-12.168 18.8159-18.1456 11.6904-14.3575.499zm-99.9814 173.169s-16.4453 20.9385-15.1631 29.8086c1.2813 8.8735 11.6973 2.8213 21.9082-17.1231 10.2158-19.9453 1.0498-21.562-6.7451-12.6855zm138.4629-138.4287s20.9424-16.4458 29.8125-15.1641c8.876 1.2803 2.8213 11.6983-17.1221 21.9111-19.9502 10.21-21.5664 1.0489-12.6904-6.747zm-173.1631 99.977s-24.7168 9.9121-28.041 18.2349c-3.3242 8.3242 8.7217 8.292 27.5381-3.875 18.8154-12.168 11.6914-18.146.5029-14.3599zm189.1133-50.6987s26.3525-3.7734 33.3994 1.7729c7.041 5.5464-3.4072 11.5401-25.7861 10.4126-22.378-1.1298-19.1954-9.8711-7.6133-12.1855zm-199.9551 0s-26.3594-3.7734-33.4004 1.7729c-7.04 5.5464 3.4082 11.5401 25.7861 10.4126 22.378-1.1298 19.1963-9.8711 7.6143-12.1855zm189.3262 50.7324s24.7099 9.9072 28.04 18.2334c3.3242 8.3242-8.7217 8.2901-27.5381-3.875-18.8154-12.168-11.6914-18.1494-.5019-14.3584zm-173.1641-99.9805s-20.9414-16.4453-29.8125-15.1635c-8.8691 1.2817-2.8213 11.6977 17.1289 21.9111 19.9434 10.21 21.5537 1.0503 12.6836-6.7476zm38.4502-34.7041s-9.9141-24.7099-18.2363-28.0361c-8.3233-3.3266-8.2901 8.7207 3.8779 27.5366 12.1621 18.8159 18.1455 11.69 14.3584.4995z" fill="#f7d749" data-name=" 225872032"/><path d="m164.927 242.8183c-22.6943.0005-47.334-9.8027-65.5127-26.6206-.8106-.7505-.8594-2.0156-.1094-2.8266.75-.8116 2.0156-.8594 2.8262-.1099 20.54 19.002 49.5996 28.6836 74.0244 24.6636 21.8486-3.5967 40.2012-14.9844 51.6758-32.0654 12.9971-19.3462 16.4668-44.46 10.0332-72.6255-.2451-1.0767.4277-2.149 1.5049-2.3951 1.0742-.2456 2.1494.4278 2.3955 1.5044 6.6846 29.2686 3.0146 55.4615-10.6133 75.7471-12.0967 18.0064-31.3975 30.0039-54.3457 33.7817-3.8662.6358-7.8428.9463-11.8789.9463z" fill="#242947"/></svg>