<svg id="color" viewBox="0 0 320 320" xmlns="http://www.w3.org/2000/svg"><path id="_223775496" d="m252.60042 83.4142c32.83638-9.6123 37.29838-16.5049 40.11378-2.2012 2.8149 14.3067 15.2778 100.3086-48.95308 137.0567-24.16802 13.8252-79.25002 28.5849-107.09232 28.6943-74.0015.2915-106.2095-80.4189-110.9253-94.2168-4.7134-13.7969 2.5976-10.0571 35.8398-18.1494 65.2925-15.8965 126.5249-32.3032 191.01712-51.1836z" fill="#73c4b4" data-name=" 223775496"/><path id="_223775328" d="m252.60042 83.4142c8.55758-2.5039 15.18458-4.8252 20.35888-6.6333 4.2271 22.4478 9.3613 73.7515-22.52978 107.1392-32.97612 34.5254-90.89112 50.0449-136.71242 36.6318-44.312-12.9687-65.5176-59.9668-73.082-81.519 5.3867-1.021 12.2861-2.3272 20.9482-4.4351 65.2925-15.8965 126.5249-32.3032 191.01712-51.1836z" fill="#fd737b" data-name=" 223775328"/><path id="_223775160" d="m174.9979 169.3146s8.9136 9.7227 7.5674 16.085c-1.3462 6.3662-11.3257 5.5786-11.7642-4.7842-.4365-10.3633 1.9033-13.0269 4.1968-11.3008zm-12.0073-44.8105s8.914 9.7197 7.5673 16.0859c-1.3476 6.3628-11.3271 5.5786-11.7636-4.7861-.4366-10.3628 1.9033-13.0264 4.1963-11.2998zm54.9267 5.6489s8.915 9.7202 7.5669 16.0845c-1.3462 6.3647-11.3257 5.5791-11.7642-4.7842-.4365-10.3643 1.9039-13.0264 4.1973-11.3003zm-96.1641 25.7681s8.9131 9.7207 7.5655 16.0849c-1.3462 6.3643-11.3262 5.5781-11.7627-4.7847-.4375-10.3647 1.9023-13.0268 4.1972-11.3002z" fill="#040406" data-name=" 223775160"/><path d="m148.7904 227.3922c-12.2183.0005-24.2666-1.5932-35.6353-4.9209-45.6211-13.352-67.2329-62.3359-74.4072-82.7758-.3657-1.0425.1826-2.1841 1.2251-2.5498 1.0425-.3643 2.1836.1831 2.5493 1.2246 6.9697 19.8579 27.9141 67.4306 71.7568 80.2622 45.3863 13.2846 102.0381-1.8946 134.704124-36.0938 31.556176-33.0371 25.905276-84.7065 22.010776-105.3877-.2046-1.0854.5097-2.1313 1.5952-2.3354 1.0815-.2061 2.1313.5093 2.3354 1.5952 4.0088 21.2881 9.7876 74.5132-23.04878 108.8906-25.45752 26.6538-65.06792 42.0889-103.08542 42.0908z" fill="#242947"/></svg>